<?xml version="1.0" encoding="UTF-8"?>
<svg version="1.1" xmlns="http://www.w3.org/2000/svg" width="215" height="215">
<path d="M0 0 C70.95 0 141.9 0 215 0 C215 70.95 215 141.9 215 215 C144.05 215 73.1 215 0 215 C0 144.05 0 73.1 0 0 Z " fill="#FDFEFE" transform="translate(0,0)"/>
<path d="M0 0 C1.89575251 -0.02721176 3.79161979 -0.04649136 5.6875 -0.0625 C6.74324219 -0.07410156 7.79898438 -0.08570312 8.88671875 -0.09765625 C11.72410262 -0.00865425 14.2438919 0.35060162 17 1 C16.67 1.61875 16.34 2.2375 16 2.875 C14.85806765 4.91018344 14.85806765 4.91018344 15 7 C15.99 7 16.98 7 18 7 C18 7.66 18 8.32 18 9 C18.59167969 9.04898438 19.18335937 9.09796875 19.79296875 9.1484375 C28.37393768 9.96033994 28.37393768 9.96033994 32 12 C32.495 13.485 32.495 13.485 33 15 C33.99 15 34.98 15 36 15 C36 14.34 36 13.68 36 13 C36.66 13 37.32 13 38 13 C38.8723412 15.99480917 39.10829766 18.63575911 39.0625 21.75 C39.05347656 22.54921875 39.04445313 23.3484375 39.03515625 24.171875 C39.02355469 24.77515625 39.01195312 25.3784375 39 26 C39.99 26 40.98 26 42 26 C42.28875 25.071875 42.5775 24.14375 42.875 23.1875 C44 20 44 20 46 17 C48.1640625 16.70703125 48.1640625 16.70703125 50.625 16.8125 C51.85089844 16.85310547 51.85089844 16.85310547 53.1015625 16.89453125 C53.72804688 16.92933594 54.35453125 16.96414062 55 17 C57.00695291 20.45434314 59.00436779 23.9141063 61 27.375 C61.57234375 28.35984375 62.1446875 29.3446875 62.734375 30.359375 C63.54648437 31.77089844 63.54648437 31.77089844 64.375 33.2109375 C64.87773437 34.08024902 65.38046875 34.94956055 65.8984375 35.84521484 C67 38 67 38 67 40 C64.36 40 61.72 40 59 40 C58.01 38.02 57.02 36.04 56 34 C53.58063683 33.83750546 51.17218141 33.71902183 48.75 33.625 C48.06808594 33.57472656 47.38617188 33.52445313 46.68359375 33.47265625 C44.38365363 33.3431629 44.38365363 33.3431629 41 34 C38.45813043 36.87236069 38.45813043 36.87236069 37 40 C35.02 39.505 35.02 39.505 33 39 C33.45375 38.319375 33.9075 37.63875 34.375 36.9375 C36.16836486 33.69564814 37.08753869 30.5796559 38 27 C35.69 27.33 33.38 27.66 31 28 C30.67 31.96 30.34 35.92 30 40 C27.69 40 25.38 40 23 40 C22.67 34.39 22.34 28.78 22 23 C21.36191406 24.14339844 20.72382812 25.28679687 20.06640625 26.46484375 C19.23185813 27.95577803 18.39721796 29.44666079 17.5625 30.9375 C17.14162109 31.69224609 16.72074219 32.44699219 16.28710938 33.22460938 C15.88427734 33.94326172 15.48144531 34.66191406 15.06640625 35.40234375 C14.5086853 36.39995728 14.5086853 36.39995728 13.93969727 37.41772461 C13 39 13 39 12 40 C10.33382885 40.04063832 8.66611905 40.042721 7 40 C5.68417937 37.73103368 4.37224764 35.45996813 3.0625 33.1875 C2.68931641 32.54490234 2.31613281 31.90230469 1.93164062 31.24023438 C0.36533365 28.51683576 -1.00369374 25.98891878 -2 23 C-2.33 28.61 -2.66 34.22 -3 40 C-10.59 39.67 -18.18 39.34 -26 39 C-26 39.66 -26 40.32 -26 41 C-23.69 41 -21.38 41 -19 41 C-21.69492136 42.79661424 -24.17442405 43.95966066 -27.125 45.25 C-29.78905215 46.47562014 -29.78905215 46.47562014 -32 48 C-33.29628737 51.15465796 -33.29628737 51.15465796 -33 54 C-21.29380287 58.1727545 -21.29380287 58.1727545 -9.125 60.3125 C-5.75783816 61.05327561 -3.96414263 62.05370291 -1.8671875 64.8359375 C0.04148992 69.5990334 -0.66415498 74.96978786 -1 80 C-3.64 80 -6.28 80 -9 80 C-8.34 79.608125 -7.68 79.21625 -7 78.8125 C-6.34 78.214375 -5.68 77.61625 -5 77 C-4.83316274 74.42429006 -4.83316274 74.42429006 -5 72 C-14.61829449 66.8360796 -22.15523326 64.8784284 -33.046875 64.24609375 C-35.50131376 64.04155719 -37.64646234 63.69120888 -40 63 C-41.17700048 58.37540756 -41.11408412 53.92133538 -41.0625 49.1875 C-41.05798828 48.39923828 -41.05347656 47.61097656 -41.04882812 46.79882812 C-41.03711312 44.86585239 -41.01917998 42.93291607 -41 41 C-39.02 41 -37.04 41 -35 41 C-35 40.34 -35 39.68 -35 39 C-36.98 39 -38.96 39 -41 39 C-41.495 36.525 -41.495 36.525 -42 34 C-42.66 34 -43.32 34 -44 34 C-44 33.34 -44 32.68 -44 32 C-48.71561188 33.2346724 -48.71561188 33.2346724 -53.1875 35.125 C-55 36 -55 36 -59 36 C-59 37.32 -59 38.64 -59 40 C-61.31 40 -63.62 40 -66 40 C-66 32.41 -66 24.82 -66 17 C-62.473125 16.938125 -58.94625 16.87625 -55.3125 16.8125 C-54.20946533 16.78518799 -53.10643066 16.75787598 -51.9699707 16.72973633 C-43.00403597 16.65346889 -43.00403597 16.65346889 -39 20 C-38 21 -38 21 -37.9375 24.0625 C-37.958125 25.031875 -37.97875 26.00125 -38 27 C-36.68 27 -35.36 27 -34 27 C-34.04165316 20.89051241 -34.04165316 20.89051241 -37.0625 15.9375 C-37.701875 15.628125 -38.34125 15.31875 -39 15 C-38.67 13.35 -38.34 11.7 -38 10 C-32.06 9.505 -32.06 9.505 -26 9 C-26 10.32 -26 11.64 -26 13 C-25.236875 12.21625 -24.47375 11.4325 -23.6875 10.625 C-19.57860418 6.6116599 -16.54876864 5.51943353 -11 4.375 C-9.7625 4.11460938 -8.525 3.85421875 -7.25 3.5859375 C-4 3 -4 3 -1 3 C-1 5.31 -1 7.62 -1 10 C-3.475 9.505 -3.475 9.505 -6 9 C-9.90306688 13.14700856 -10 13.82543444 -10 20 C-15.61 20 -21.22 20 -27 20 C-27 22.31 -27 24.62 -27 27 C-22.05 27 -17.1 27 -12 27 C-12 28.32 -12 29.64 -12 31 C-10.35 30.67 -8.7 30.34 -7 30 C-6.67 25.71 -6.34 21.42 -6 17 C-3.03 17 -0.06 17 3 17 C3.56589844 18.07121094 4.13179688 19.14242187 4.71484375 20.24609375 C5.45563367 21.6432798 6.19652429 23.04041247 6.9375 24.4375 C7.49727539 25.49807617 7.49727539 25.49807617 8.06835938 26.58007812 C9.72492335 30.00478658 9.72492335 30.00478658 12 33 C13.15143825 30.9195946 14.29624112 28.83598003 15.4375 26.75 C15.76298828 26.16347656 16.08847656 25.57695313 16.42382812 24.97265625 C18.02882617 22.0274021 19.4163488 19.32105755 20 16 C18.89140625 15.96261719 17.7828125 15.92523438 16.640625 15.88671875 C15.17705026 15.82104552 13.71351009 15.75459865 12.25 15.6875 C11.15558594 15.65366211 11.15558594 15.65366211 10.0390625 15.61914062 C6.91962508 15.46316875 4.34821323 15.16104862 1.5 13.84375 C-0.6779639 11.16666938 -0.39605239 9.20821797 -0.25 5.8125 C-0.21390625 4.72582031 -0.1778125 3.63914062 -0.140625 2.51953125 C-0.09421875 1.68808594 -0.0478125 0.85664062 0 0 Z " fill="#A4E1E5" transform="translate(107,67)"/>
<path d="M0 0 C0 0.99 0 1.98 0 3 C-0.66 3 -1.32 3 -2 3 C-2.226875 3.86625 -2.45375 4.7325 -2.6875 5.625 C-4.32567383 9.83744699 -5.64465413 11.9429071 -9 15 C-13.63874748 15 -17.66577693 13.58569137 -22 12 C-22 11.34 -22 10.68 -22 10 C-22.99 10 -23.98 10 -25 10 C-24.91621094 10.74765625 -24.83242187 11.4953125 -24.74609375 12.265625 C-24.59333984 13.74289063 -24.59333984 13.74289063 -24.4375 15.25 C-24.28087891 16.71179688 -24.28087891 16.71179688 -24.12109375 18.203125 C-24.01025532 20.7631352 -24.22261908 22.58148159 -25 25 C-23.845 24.67 -22.69 24.34 -21.5 24 C-17.22499413 22.91598066 -13.39638547 22.84298623 -9 23 C-12.82605273 31.3708115 -18.66691442 37.4849292 -25 44 C-25.89074219 44.94746094 -26.78148437 45.89492187 -27.69921875 46.87109375 C-28.45847656 47.57363281 -29.21773438 48.27617187 -30 49 C-32.3125 48.8125 -32.3125 48.8125 -34 48 C-34 47.34 -34 46.68 -34 46 C-34.66 46 -35.32 46 -36 46 C-33.64276049 39.47225981 -33.64276049 39.47225981 -31 37 C-28.03934718 36.0675524 -25.06259059 35.48795993 -22 35 C-22 33.35 -22 31.7 -22 30 C-22.598125 29.855625 -23.19625 29.71125 -23.8125 29.5625 C-25.56150404 29.1127561 -27.28677023 28.57107659 -29 28 C-29 27.34 -29 26.68 -29 26 C-36.59 25.34 -44.18 24.68 -52 24 C-52 23.34 -52 22.68 -52 22 C-52.99 22 -53.98 22 -55 22 C-55 21.01 -55 20.02 -55 19 C-55.66 19 -56.32 19 -57 19 C-57.495 18.01 -57.495 18.01 -58 17 C-59.32 17 -60.64 17 -62 17 C-62 17.99 -62 18.98 -62 20 C-62.66 20 -63.32 20 -64 20 C-64 20.66 -64 21.32 -64 22 C-64.66 22 -65.32 22 -66 22 C-66 22.99 -66 23.98 -66 25 C-69.60993172 26.13480527 -72.9842327 26.10015767 -76.75 26.0625 C-77.92046875 26.05347656 -79.0909375 26.04445312 -80.296875 26.03515625 C-81.18890625 26.02355469 -82.0809375 26.01195312 -83 26 C-83 26.66 -83 27.32 -83 28 C-84.98 28 -86.96 28 -89 28 C-89.33 27.01 -89.66 26.02 -90 25 C-92.64 24.67 -95.28 24.34 -98 24 C-97.97679688 24.67546875 -97.95359375 25.3509375 -97.9296875 26.046875 C-97.90261719 27.38492188 -97.90261719 27.38492188 -97.875 28.75 C-97.85179688 29.63171875 -97.82859375 30.5134375 -97.8046875 31.421875 C-98.00860498 34.1135858 -98.63448279 35.69904974 -100 38 C-98.58318366 37.68817931 -97.16655349 37.37551263 -95.75 37.0625 C-94.96109375 36.88847656 -94.1721875 36.71445313 -93.359375 36.53515625 C-91.23271327 36.0527843 -89.11557202 35.52889301 -87 35 C-87 39.29 -87 43.58 -87 48 C-93.27 47.34 -99.54 46.68 -106 46 C-106 44.68 -106 43.36 -106 42 C-106.99 42 -107.98 42 -109 42 C-109.66 40.68 -110.32 39.36 -111 38 C-113.97 38.495 -113.97 38.495 -117 39 C-121.59225513 29.58997722 -121.59225513 29.58997722 -121 25 C-119.02 24.67 -117.04 24.34 -115 24 C-115 25.32 -115 26.64 -115 28 C-111.75150023 26.27773504 -111.75150023 26.27773504 -111 23 C-110.34 23 -109.68 23 -109 23 C-109 22.34 -109 21.68 -109 21 C-105.7 21 -102.4 21 -99 21 C-99 20.34 -99 19.68 -99 19 C-95.04 19.33 -91.08 19.66 -87 20 C-87 16.04 -87 12.08 -87 8 C-85.68 8.66 -84.36 9.32 -83 10 C-83 8.35 -83 6.7 -83 5 C-79.43638218 5.27891912 -75.87443209 5.57537734 -72.3125 5.875 C-71.30509766 5.95363281 -70.29769531 6.03226563 -69.25976562 6.11328125 C-68.28330078 6.19707031 -67.30683594 6.28085938 -66.30078125 6.3671875 C-65.40528564 6.44050293 -64.50979004 6.51381836 -63.5871582 6.58935547 C-59.93415859 7.16917479 -56.99234234 8.23173496 -54.0625 10.5 C-51.52286471 12.34700748 -48.99460595 13.11523006 -46 14 C-46.495 10.04 -46.495 10.04 -47 6 C-43.60500696 5.49418146 -40.20888518 4.99637756 -36.8125 4.5 C-35.85279297 4.35691406 -34.89308594 4.21382812 -33.90429688 4.06640625 C-32.97294922 3.93105469 -32.04160156 3.79570312 -31.08203125 3.65625 C-30.22843018 3.53056641 -29.3748291 3.40488281 -28.49536133 3.27539062 C-25.97530325 2.99727444 -23.53314218 2.952392 -21 3 C-21 2.34 -21 1.68 -21 1 C-13.98194143 -0.10087193 -7.09434233 -0.09733092 0 0 Z " fill="#ADE4E8" transform="translate(193,127)"/>
<path d="M0 0 C5.94 0 11.88 0 18 0 C18 0.66 18 1.32 18 2 C18.7528125 2.0515625 19.505625 2.103125 20.28125 2.15625 C34.58227265 3.68354368 48.62680676 11.0207255 59 21 C59.81640625 23.265625 59.81640625 23.265625 60 25 C58.56589632 25.24954005 57.12739928 25.47392642 55.6875 25.6875 C54.88699219 25.81511719 54.08648437 25.94273438 53.26171875 26.07421875 C51 26 51 26 49.20703125 24.51953125 C48.80871094 24.01808594 48.41039062 23.51664063 48 23 C48 23.66 48 24.32 48 25 C45.36 24.67 42.72 24.34 40 24 C39.505 22.515 39.505 22.515 39 21 C37.515 20.505 37.515 20.505 36 20 C35.505 19.01 35.505 19.01 35 18 C32.52733235 18.34444881 32.52733235 18.34444881 30 19 C29.67 19.66 29.34 20.32 29 21 C26.71508789 21.51489258 26.71508789 21.51489258 23.72265625 21.89453125 C22.11680664 22.12172852 22.11680664 22.12172852 20.47851562 22.35351562 C18.20652889 22.65878543 15.93304459 22.95311493 13.65820312 23.23632812 C12.58634766 23.39166016 11.51449219 23.54699219 10.41015625 23.70703125 C9.42152588 23.8356958 8.43289551 23.96436035 7.41430664 24.09692383 C4.74394362 24.7883528 4.74394362 24.7883528 3.66186523 27.58081055 C3.33424194 28.77830933 3.33424194 28.77830933 3 30 C3.9590625 29.87625 3.9590625 29.87625 4.9375 29.75 C9.40292757 30.1145247 13.00911228 32.05237724 17 34 C17 34.66 17 35.32 17 36 C17.99 35.67 18.98 35.34 20 35 C28.632506 34.12089672 28.632506 34.12089672 32.625 36.6875 C34.23107783 39.38863089 34.11243157 40.91835284 34 44 C23.42325588 48.47866916 12.15177334 46.84261778 1 46 C0.8865625 45.36191406 0.773125 44.72382812 0.65625 44.06640625 C0.4396875 43.38449219 0.223125 42.70257813 0 42 C-2.6184661 40.81843032 -2.6184661 40.81843032 -6 40 C-6.58265625 39.7525 -7.1653125 39.505 -7.765625 39.25 C-15.76682956 35.97391624 -24.47881552 36.26657427 -33 36 C-33 35.34 -33 34.68 -33 34 C-34.2684375 34.1546875 -34.2684375 34.1546875 -35.5625 34.3125 C-40.13693451 33.89664232 -42.74590962 32.18013378 -46 29 C-47.9375 25.6875 -47.9375 25.6875 -49 23 C-47.87895467 21.68412059 -46.75303035 20.37239647 -45.625 19.0625 C-44.99851562 18.33160156 -44.37203125 17.60070312 -43.7265625 16.84765625 C-41.45449266 14.41623309 -40.50592152 14.0362368 -37.1640625 13.796875 C-28.97049838 13.68835097 -21.8327753 14.58991529 -14 17 C-14 17.66 -14 18.32 -14 19 C-13.01 19 -12.02 19 -11 19 C-11 19.66 -11 20.32 -11 21 C-9.35 21 -7.7 21 -6 21 C-6 20.34 -6 19.68 -6 19 C-1.38 19 3.24 19 8 19 C8 19.66 8 20.32 8 21 C8.99 21 9.98 21 11 21 C11.33 19.68 11.66 18.36 12 17 C13.98 17 15.96 17 18 17 C18 16.34 18 15.68 18 15 C23.445 14.01 23.445 14.01 29 13 C26.78302527 8.44288527 24.76127768 6.7313737 20 5 C16.673314 4.48781964 13.35935503 4.19253221 10 4 C10 3.34 10 2.68 10 2 C6.7 2 3.4 2 0 2 C0 1.34 0 0.68 0 0 Z " fill="#A6E2E6" transform="translate(107,19)"/>
<path d="M0 0 C1.89575251 -0.02721176 3.79161979 -0.04649136 5.6875 -0.0625 C6.74324219 -0.07410156 7.79898438 -0.08570312 8.88671875 -0.09765625 C11.72410262 -0.00865425 14.2438919 0.35060162 17 1 C16.67 1.61875 16.34 2.2375 16 2.875 C14.85806765 4.91018344 14.85806765 4.91018344 15 7 C15.99 7 16.98 7 18 7 C18 7.66 18 8.32 18 9 C18.59167969 9.04898438 19.18335937 9.09796875 19.79296875 9.1484375 C28.37393768 9.96033994 28.37393768 9.96033994 32 12 C32.495 13.485 32.495 13.485 33 15 C33.99 15 34.98 15 36 15 C36 14.34 36 13.68 36 13 C36.66 13 37.32 13 38 13 C38.8723412 15.99480917 39.10829766 18.63575911 39.0625 21.75 C39.05347656 22.54921875 39.04445312 23.3484375 39.03515625 24.171875 C39.02355469 24.77515625 39.01195312 25.3784375 39 26 C39.99 26 40.98 26 42 26 C42.28875 25.071875 42.5775 24.14375 42.875 23.1875 C44 20 44 20 46 17 C48.1640625 16.70703125 48.1640625 16.70703125 50.625 16.8125 C51.44226563 16.83957031 52.25953125 16.86664063 53.1015625 16.89453125 C53.72804687 16.92933594 54.35453125 16.96414062 55 17 C57.00695291 20.45434314 59.00436779 23.9141063 61 27.375 C61.57234375 28.35984375 62.1446875 29.3446875 62.734375 30.359375 C63.27578125 31.30039063 63.8171875 32.24140625 64.375 33.2109375 C65.12910156 34.51490479 65.12910156 34.51490479 65.8984375 35.84521484 C67 38 67 38 67 40 C64.36 40 61.72 40 59 40 C58.01 38.02 57.02 36.04 56 34 C53.58063683 33.83750546 51.17218141 33.71902183 48.75 33.625 C48.06808594 33.57472656 47.38617188 33.52445313 46.68359375 33.47265625 C44.38365363 33.3431629 44.38365363 33.3431629 41 34 C38.45813043 36.87236069 38.45813043 36.87236069 37 40 C35.68 39.67 34.36 39.34 33 39 C33.45375 38.319375 33.9075 37.63875 34.375 36.9375 C36.16836486 33.69564814 37.08753869 30.5796559 38 27 C35.69 27.33 33.38 27.66 31 28 C30.67 31.96 30.34 35.92 30 40 C27.69 40 25.38 40 23 40 C22.67 34.39 22.34 28.78 22 23 C21.36191406 24.14339844 20.72382812 25.28679687 20.06640625 26.46484375 C19.23185813 27.95577803 18.39721796 29.44666079 17.5625 30.9375 C17.14162109 31.69224609 16.72074219 32.44699219 16.28710938 33.22460938 C15.88427734 33.94326172 15.48144531 34.66191406 15.06640625 35.40234375 C14.69459229 36.06741943 14.32277832 36.73249512 13.93969727 37.41772461 C13 39 13 39 12 40 C10.33382885 40.04063832 8.66611905 40.042721 7 40 C5.68417937 37.73103368 4.37224764 35.45996813 3.0625 33.1875 C2.68931641 32.54490234 2.31613281 31.90230469 1.93164062 31.24023438 C0.36533365 28.51683576 -1.00369374 25.98891878 -2 23 C-2.33 28.61 -2.66 34.22 -3 40 C-3.99 40 -4.98 40 -6 40 C-6 32.41 -6 24.82 -6 17 C-3.03 17 -0.06 17 3 17 C3.56589844 18.07121094 4.13179687 19.14242187 4.71484375 20.24609375 C5.45563367 21.6432798 6.19652429 23.04041247 6.9375 24.4375 C7.31068359 25.14455078 7.68386719 25.85160156 8.06835938 26.58007812 C9.72492335 30.00478658 9.72492335 30.00478658 12 33 C13.15143825 30.9195946 14.29624112 28.83598003 15.4375 26.75 C15.76298828 26.16347656 16.08847656 25.57695313 16.42382812 24.97265625 C18.02882617 22.0274021 19.4163488 19.32105755 20 16 C18.89140625 15.96261719 17.7828125 15.92523438 16.640625 15.88671875 C15.17705026 15.82104552 13.71351009 15.75459865 12.25 15.6875 C11.15558594 15.65366211 11.15558594 15.65366211 10.0390625 15.61914062 C6.91962508 15.46316875 4.34821323 15.16104862 1.5 13.84375 C-0.6779639 11.16666938 -0.39605239 9.20821797 -0.25 5.8125 C-0.21390625 4.72582031 -0.1778125 3.63914062 -0.140625 2.51953125 C-0.07101563 1.27236328 -0.07101563 1.27236328 0 0 Z " fill="#A3E0E5" transform="translate(107,67)"/>
<path d="M0 0 C0.495 7.425 0.495 7.425 1 15 C-3.0084034 12.9957983 -4.41409657 11.50944037 -7 8 C-8.94999129 8.19471111 -8.94999129 8.19471111 -11 9 C-12.1500831 10.96672915 -12.1500831 10.96672915 -13 13 C-13.99 13.495 -13.99 13.495 -15 14 C-15.65213292 16.02463255 -15.65213292 16.02463255 -16 18 C-16.99 18 -17.98 18 -19 18 C-19 18.66 -19 19.32 -19 20 C-26.68604474 20.97159933 -34.25863399 21.10920422 -42 21 C-45.59482404 14.23327239 -47.8634633 9.59719654 -46 2 C-42.22454612 3.09068668 -39.52956528 3.9083091 -37 7 C-37.020625 6.195625 -37.04125 5.39125 -37.0625 4.5625 C-37 2 -37 2 -36 1 C-34.00041636 0.95919217 -31.99954746 0.95745644 -30 1 C-30 0.34 -30 -0.32 -30 -1 C-19.05002802 -3.60935502 -10.69784205 -3.66783156 0 0 Z " fill="#A3E1E5" transform="translate(65,114)"/>
<path d="M0 0 C7.90709331 0.645477 15.39133967 2.86997139 23 5 C23 6.65 23 8.3 23 10 C23.391875 9.54625 23.78375 9.0925 24.1875 8.625 C28.17166796 5.05298735 32.62977706 4.68910442 37.8125 4.375 C38.97394531 4.30023438 40.13539063 4.22546875 41.33203125 4.1484375 C42.65267578 4.07496094 42.65267578 4.07496094 44 4 C44 5.32 44 6.64 44 8 C44.61875 7.505 45.2375 7.01 45.875 6.5 C48 5 48 5 50 5 C48.50427457 10.31813487 45.45083141 14.76507869 41 18 C33.31589832 20.12623148 26.18527052 19.28628651 19 16 C19.33 17.175625 19.66 18.35125 20 19.5625 C20.38249088 22.51763499 20.3205828 23.57699724 18.49609375 25.984375 C12.59786178 31.2222736 8.05404263 34 0 34 C0 29.71 0 25.42 0 21 C1.98 21.33 3.96 21.66 6 22 C8.33257494 22.33859959 10.66574212 22.6732039 13 23 C13 18.38 13 13.76 13 9 C10.69 9.33 8.38 9.66 6 10 C6 10.66 6 11.32 6 12 C4.02 12.33 2.04 12.66 0 13 C0 8.71 0 4.42 0 0 Z " fill="#D0EEF1" transform="translate(107,162)"/>
<path d="M0 0 C2.97 0.33 5.94 0.66 9 1 C9 1.66 9 2.32 9 3 C9.92619141 3.07347656 9.92619141 3.07347656 10.87109375 3.1484375 C16.73478159 3.66608422 22.27872775 4.61582123 28 6 C27.67 8.64 27.34 11.28 27 14 C28.48030272 13.18957164 29.95921142 12.37659652 31.4375 11.5625 C32.26121094 11.11003906 33.08492187 10.65757813 33.93359375 10.19140625 C35.92308798 9.16337603 35.92308798 9.16337603 37 8 C38.66617115 7.95936168 40.33388095 7.957279 42 8 C41.67 9.32 41.34 10.64 41 12 C40.01 12 39.02 12 38 12 C38 12.99 38 13.98 38 15 C30.74 15 23.48 15 16 15 C16 20.94 16 26.88 16 33 C9.29817636 32.91181811 9.29817636 32.91181811 6 32 C4.13084945 29.84491708 3.25528756 27.60355938 2 25 C-0.62102997 23.95489639 -0.62102997 23.95489639 -3 24 C-3.66 25.32 -4.32 26.64 -5 28 C-7 26 -7 26 -7.125 23.375 C-7.08375 22.59125 -7.0425 21.8075 -7 21 C-3.26562152 20.12132271 0.16774573 19.91087781 4 20 C4 20.66 4 21.32 4 22 C6.31 22 8.62 22 11 22 C11 17.38 11 12.76 11 8 C6.235627 8.98786892 6.235627 8.98786892 2.375 11.6875 C1.92125 12.120625 1.4675 12.55375 1 13 C-1.6875 12.6875 -1.6875 12.6875 -4 12 C-3.45660208 7.43545749 -2.20536179 4.0271824 0 0 Z " fill="#AAE3E7" transform="translate(25,69)"/>
<path d="M0 0 C1.50433594 0.01353516 1.50433594 0.01353516 3.0390625 0.02734375 C3.80992188 0.03894531 4.58078125 0.05054688 5.375 0.0625 C5.42923638 1.97885217 5.46789963 3.89564925 5.5 5.8125 C5.52320312 6.87984375 5.54640625 7.9471875 5.5703125 9.046875 C5.37987687 11.98720106 4.90170104 13.58611878 3.375 16.0625 C4.79181634 15.75067931 6.20844651 15.43801263 7.625 15.125 C8.41390625 14.95097656 9.2028125 14.77695313 10.015625 14.59765625 C12.14228673 14.1152843 14.25942798 13.59139301 16.375 13.0625 C16.375 17.3525 16.375 21.6425 16.375 26.0625 C10.105 25.4025 3.835 24.7425 -2.625 24.0625 C-2.625 22.7425 -2.625 21.4225 -2.625 20.0625 C-3.615 20.0625 -4.605 20.0625 -5.625 20.0625 C-6.285 18.7425 -6.945 17.4225 -7.625 16.0625 C-9.605 16.3925 -11.585 16.7225 -13.625 17.0625 C-18.21725513 7.65247722 -18.21725513 7.65247722 -17.625 3.0625 C-15.645 2.7325 -13.665 2.4025 -11.625 2.0625 C-11.625 3.3825 -11.625 4.7025 -11.625 6.0625 C-8.37650023 4.34023504 -8.37650023 4.34023504 -7.625 1.0625 C-4.98041621 -0.25979189 -2.94738699 -0.03427194 0 0 Z " fill="#A3E1E5" transform="translate(89.625,148.9375)"/>
<path d="M0 0 C1.32 0 2.64 0 4 0 C4.03738281 0.69867188 4.07476562 1.39734375 4.11328125 2.1171875 C4.21189453 3.48230469 4.21189453 3.48230469 4.3125 4.875 C4.37050781 5.77992187 4.42851563 6.68484375 4.48828125 7.6171875 C4.7882039 10.36221601 4.7882039 10.36221601 8 12 C10.74341518 12.45770675 13.42742471 12.83091338 16.1875 13.125 C17.31188477 13.25455078 17.31188477 13.25455078 18.45898438 13.38671875 C20.30517412 13.59838382 22.15249344 13.80015464 24 14 C23.47729735 18.90309806 21.9987369 22.18388507 19.4375 26.375 C18.79683594 27.43460938 18.15617187 28.49421875 17.49609375 29.5859375 C17.00238281 30.38257812 16.50867188 31.17921875 16 32 C13.27249514 28.75380298 11.11562321 25.61860166 9.25 21.8125 C8.82203125 20.95269531 8.3940625 20.09289062 7.953125 19.20703125 C7 17 7 17 7 15 C4.03 15 1.06 15 -2 15 C-1.98839844 15.92683594 -1.97679688 16.85367188 -1.96484375 17.80859375 C-1.95582031 19.00613281 -1.94679688 20.20367187 -1.9375 21.4375 C-1.92589844 22.63246094 -1.91429688 23.82742187 -1.90234375 25.05859375 C-2 28 -2 28 -3 29 C-4.66617115 29.04063832 -6.33388095 29.042721 -8 29 C-8 27.68 -8 26.36 -8 25 C-12.95 25 -17.9 25 -23 25 C-23 22.69 -23 20.38 -23 18 C-17.39 18 -11.78 18 -6 18 C-6.33 16.02 -6.66 14.04 -7 12 C-5.69311034 9.50922207 -3.99413099 8.04276834 -2 6 C-0.68 6.33 0.64 6.66 2 7 C2.33 5.02 2.66 3.04 3 1 C2.01 0.67 1.02 0.34 0 0 Z " fill="#EFF3F4" transform="translate(103,69)"/>
<path d="M0 0 C0.19658808 1.41543415 0.38187546 2.83244031 0.5625 4.25 C0.66691406 5.03890625 0.77132812 5.8278125 0.87890625 6.640625 C1.00027349 9.00532874 0.69633257 10.7511037 0 13 C1.155 12.67 2.31 12.34 3.5 12 C7.77500587 10.91598066 11.60361453 10.84298623 16 11 C12.17394727 19.3708115 6.33308558 25.4849292 0 32 C-0.89074219 32.94746094 -1.78148437 33.89492187 -2.69921875 34.87109375 C-3.45847656 35.57363281 -4.21773437 36.27617187 -5 37 C-7.3125 36.8125 -7.3125 36.8125 -9 36 C-9 35.34 -9 34.68 -9 34 C-9.66 34 -10.32 34 -11 34 C-8.64276049 27.47225981 -8.64276049 27.47225981 -6 25 C-3.03934718 24.0675524 -0.06259059 23.48795993 3 23 C3 21.35 3 19.7 3 18 C2.401875 17.855625 1.80375 17.71125 1.1875 17.5625 C-0.56150404 17.1127561 -2.28677023 16.57107659 -4 16 C-4 15.34 -4 14.68 -4 14 C-10.27 13.34 -16.54 12.68 -23 12 C-23.33 10.35 -23.66 8.7 -24 7 C-19.26561834 5.40698479 -14.51419321 3.87580812 -9.75 2.375 C-9.03070313 2.14554688 -8.31140625 1.91609375 -7.5703125 1.6796875 C-2.2313058 0 -2.2313058 0 0 0 Z " fill="#A4E1E5" transform="translate(168,139)"/>
<path d="M0 0 C2.97 0.495 2.97 0.495 6 1 C6 3.31 6 5.62 6 8 C6.81791016 7.3503125 6.81791016 7.3503125 7.65234375 6.6875 C13.41737512 2.43024607 16.85900487 1.31990523 24 2 C24.83887056 4.43572059 25.67126529 6.87333217 26.5 9.3125 C26.85771484 10.34793945 26.85771484 10.34793945 27.22265625 11.40429688 C28.23208263 14.38931489 29 16.82658914 29 20 C25.94736336 20.98120464 24.05263664 20.98120464 21 20 C21 20.66 21 21.32 21 22 C17.67506623 22.71496488 14.34129409 23.36622595 11 24 C10.18917969 24.1753125 9.37835938 24.350625 8.54296875 24.53125 C2.9909891 25.51490568 2.9909891 25.51490568 0.10546875 24.015625 C-1.5625 22.6875 -1.5625 22.6875 -4 20 C-4 19.34 -4 18.68 -4 18 C0.455 18.99 0.455 18.99 5 20 C4.835 18.96875 4.67 17.9375 4.5 16.875 C4 13 4 13 4.1875 9.8125 C3.94565264 6.18478957 2.62007233 5.37444055 0 3 C0 2.01 0 1.02 0 0 Z " fill="#A3E1E5" transform="translate(46,150)"/>
<path d="M0 0 C2.97 0 5.94 0 9 0 C9.84884766 1.60681641 9.84884766 1.60681641 10.71484375 3.24609375 C11.45563367 4.6432798 12.19652429 6.04041247 12.9375 7.4375 C13.31068359 8.14455078 13.68386719 8.85160156 14.06835938 9.58007812 C15.72492335 13.00478658 15.72492335 13.00478658 18 16 C20.97 10.72 23.94 5.44 27 0 C29.64 0 32.28 0 35 0 C35 7.59 35 15.18 35 23 C33.02 23 31.04 23 29 23 C28.67 17.39 28.34 11.78 28 6 C27.36191406 7.14339844 26.72382812 8.28679687 26.06640625 9.46484375 C25.23185813 10.95577803 24.39721796 12.44666079 23.5625 13.9375 C23.14162109 14.69224609 22.72074219 15.44699219 22.28710938 16.22460938 C21.88427734 16.94326172 21.48144531 17.66191406 21.06640625 18.40234375 C20.5086853 19.39995728 20.5086853 19.39995728 19.93969727 20.41772461 C19 22 19 22 18 23 C16.33382885 23.04063832 14.66611905 23.042721 13 23 C11.68417937 20.73103368 10.37224764 18.45996813 9.0625 16.1875 C8.68931641 15.54490234 8.31613281 14.90230469 7.93164062 14.24023438 C6.36533365 11.51683576 4.99630626 8.98891878 4 6 C3.67 11.61 3.34 17.22 3 23 C2.01 23 1.02 23 0 23 C0 15.41 0 7.82 0 0 Z " fill="#054DAE" transform="translate(101,84)"/>
<path d="M0 0 C0.33 0.99 0.66 1.98 1 3 C1.9590625 2.87625 1.9590625 2.87625 2.9375 2.75 C7.40292757 3.1145247 11.00911228 5.05237724 15 7 C15 7.66 15 8.32 15 9 C15.99 8.67 16.98 8.34 18 8 C26.632506 7.12089672 26.632506 7.12089672 30.625 9.6875 C32.23107783 12.38863089 32.11243157 13.91835284 32 17 C21.42325588 21.47866916 10.15177334 19.84261778 -1 19 C-1.02690104 16.20826945 -1.04679053 13.41679652 -1.0625 10.625 C-1.07087891 9.8309375 -1.07925781 9.036875 -1.08789062 8.21875 C-1.11328125 2.2265625 -1.11328125 2.2265625 0 0 Z " fill="#A3E1E5" transform="translate(109,46)"/>
<path d="M0 0 C1.01034498 1.74404788 2.00792422 3.49549561 3 5.25 C3.556875 6.22453125 4.11375 7.1990625 4.6875 8.203125 C6 11 6 11 6 15 C4.35 15 2.7 15 1 15 C1 15.66 1 16.32 1 17 C-4.66104589 16.50341703 -8.87674471 15.45489316 -14 13 C-14 12.34 -14 11.68 -14 11 C-16.31 10.34 -18.62 9.68 -21 9 C-21 11.64 -21 14.28 -21 17 C-25 12.25 -25 12.25 -25 10 C-27.97 10 -30.94 10 -34 10 C-34.4021875 11.11375 -34.4021875 11.11375 -34.8125 12.25 C-36 15 -36 15 -39 19 C-39 14.71 -39 10.42 -39 6 C-36.36 6 -33.72 6 -31 6 C-31 6.66 -31 7.32 -31 8 C-28.03 8.495 -28.03 8.495 -25 9 C-25 7.35 -25 5.7 -25 4 C-24.35933594 3.95101562 -23.71867188 3.90203125 -23.05859375 3.8515625 C-15.24545067 3.17620885 -7.69456234 -0.20796114 0 0 Z " fill="#B7E7EA" transform="translate(187,74)"/>
<path d="M0 0 C3.76482152 1.48110561 5.33436705 3.48774681 7.5625 6.8125 C8.43068359 8.09060547 8.43068359 8.09060547 9.31640625 9.39453125 C10.14978516 10.68423828 10.14978516 10.68423828 11 12 C11.56589844 12.87011719 12.13179687 13.74023438 12.71484375 14.63671875 C14 17 14 17 14 20 C13.34 20 12.68 20 12 20 C12 19.34 12 18.68 12 18 C11.17242187 18.24556641 11.17242187 18.24556641 10.328125 18.49609375 C7.73385993 19.05760414 5.40164589 19.09739008 2.75 19.0625 C1.85796875 19.05347656 0.9659375 19.04445313 0.046875 19.03515625 C-0.62859375 19.02355469 -1.3040625 19.01195313 -2 19 C-2 18.34 -2 17.68 -2 17 C-2.99 17 -3.98 17 -5 17 C-6.60546875 15.25 -6.60546875 15.25 -8.1875 13 C-8.71730469 12.2575 -9.24710938 11.515 -9.79296875 10.75 C-10.19128906 10.1725 -10.58960938 9.595 -11 9 C-14.3422513 10.55925113 -16.43256389 12.34698268 -19 15 C-21.95664519 16.4783226 -24.74229737 16.06032783 -28 16 C-28 13.03 -28 10.06 -28 7 C-19.96738637 4.88615431 -9.05128953 2.31623682 -1 5 C-0.67 3.35 -0.34 1.7 0 0 Z " fill="#D9F1F3" transform="translate(171,47)"/>
<path d="M0 0 C0 0.66 0 1.32 0 2 C0.99 2 1.98 2 3 2 C3 2.66 3 3.32 3 4 C4.32 4.33 5.64 4.66 7 5 C5.02 5.66 3.04 6.32 1 7 C1 5.68 1 4.36 1 3 C-1.44806092 3.31617023 -3.87553471 3.67536043 -6.3125 4.0625 C-7.00279297 4.14693359 -7.69308594 4.23136719 -8.40429688 4.31835938 C-10.73310611 4.64627877 -10.73310611 4.64627877 -14 6 C-16.34093902 10.038239 -17.08022645 13.40113224 -18 18 C-14.04 18 -10.08 18 -6 18 C-6 18.33 -6 18.66 -6 19 C-10.29 19 -14.58 19 -19 19 C-19 18.34 -19 17.68 -19 17 C-19.845625 17.103125 -20.69125 17.20625 -21.5625 17.3125 C-26.13693451 16.89664232 -28.74590962 15.18013378 -32 12 C-33.9375 8.6875 -33.9375 8.6875 -35 6 C-33.87895467 4.68412059 -32.75303035 3.37239647 -31.625 2.0625 C-30.99851562 1.33160156 -30.37203125 0.60070313 -29.7265625 -0.15234375 C-23.10430788 -7.23905514 -8.06081325 -2.48025023 0 0 Z " fill="#D9F0F3" transform="translate(93,36)"/>
<path d="M0 0 C3.526875 -0.061875 7.05375 -0.12375 10.6875 -0.1875 C12.342052 -0.22846802 12.342052 -0.22846802 14.0300293 -0.27026367 C22.99596403 -0.34653111 22.99596403 -0.34653111 27 3 C28 4 28 4 28.25 6.375 C28 9 28 9 26.75 10.75 C22.7092648 13.63623943 18.0262436 13.1211873 13.25 13.0625 C12.55261719 13.05798828 11.85523438 13.05347656 11.13671875 13.04882812 C9.42444197 13.0371002 7.71220967 13.01916653 6 13 C6 16.3 6 19.6 6 23 C4.02 23 2.04 23 0 23 C0 15.41 0 7.82 0 0 Z " fill="#034CAD" transform="translate(41,84)"/>
<path d="M0 0 C2.28928842 0 4.32017308 0.18622146 6.55029297 0.6875 C8.55724587 4.14184314 10.55466076 7.6016063 12.55029297 11.0625 C13.12263672 12.04734375 13.69498047 13.0321875 14.28466797 14.046875 C14.82607422 14.98789063 15.36748047 15.92890625 15.92529297 16.8984375 C16.42802734 17.76774902 16.93076172 18.63706055 17.44873047 19.53271484 C18.55029297 21.6875 18.55029297 21.6875 18.55029297 23.6875 C15.91029297 23.6875 13.27029297 23.6875 10.55029297 23.6875 C9.56029297 21.7075 8.57029297 19.7275 7.55029297 17.6875 C5.1309298 17.52500546 2.72247438 17.40652183 0.30029297 17.3125 C-0.38162109 17.26222656 -1.06353516 17.21195313 -1.76611328 17.16015625 C-4.06605341 17.0306629 -4.06605341 17.0306629 -7.44970703 17.6875 C-9.9915766 20.55986069 -9.9915766 20.55986069 -11.44970703 23.6875 C-12.76970703 23.3575 -14.08970703 23.0275 -15.44970703 22.6875 C-13.52587398 18.98916232 -11.52737034 15.33676126 -9.51220703 11.6875 C-8.69526367 10.11355469 -8.69526367 10.11355469 -7.86181641 8.5078125 C-3.66002775 1.02717143 -3.66002775 1.02717143 0 0 Z " fill="#074FAE" transform="translate(155.44970703125,83.3125)"/>
<path d="M0 0 C0.99 0.33 1.98 0.66 3 1 C3.06058594 1.88042969 3.12117188 2.76085937 3.18359375 3.66796875 C3.30927734 5.41013672 3.30927734 5.41013672 3.4375 7.1875 C3.55931641 8.91033203 3.55931641 8.91033203 3.68359375 10.66796875 C3.95403812 13.51598171 4.37521747 16.21210482 5 19 C6.98 19.33 8.96 19.66 11 20 C11 20.33 11 20.66 11 21 C3.31395526 21.97159933 -4.25863399 22.10920422 -12 22 C-15.59482404 15.23327239 -17.8634633 10.59719654 -16 3 C-12.22454612 4.09068668 -9.52956528 4.9083091 -7 8 C-7.020625 7.195625 -7.04125 6.39125 -7.0625 5.5625 C-7 3 -7 3 -6 2 C-4.00041636 1.95919217 -1.99954746 1.95745644 0 2 C0 1.34 0 0.68 0 0 Z " fill="#DCF2F4" transform="translate(35,113)"/>
<path d="M0 0 C0 2.31 0 4.62 0 7 C-2.475 6.505 -2.475 6.505 -5 6 C-7.25245881 8.68841859 -8.88213958 10.64641875 -10 14 C-13.91543017 14.25510162 -17.83206809 14.47456892 -21.75 14.6875 C-22.86117187 14.76033203 -23.97234375 14.83316406 -25.1171875 14.90820312 C-26.72207031 14.99038086 -26.72207031 14.99038086 -28.359375 15.07421875 C-29.34389648 15.13182373 -30.32841797 15.18942871 -31.34277344 15.2487793 C-34.44173588 14.95864307 -35.72600371 14.06405265 -38 12 C-37.67 10.35 -37.34 8.7 -37 7 C-31.06 6.505 -31.06 6.505 -25 6 C-25 7.32 -25 8.64 -25 10 C-24.236875 9.21625 -23.47375 8.4325 -22.6875 7.625 C-18.57860418 3.6116599 -15.54876864 2.51943353 -10 1.375 C-8.14375 0.98441406 -8.14375 0.98441406 -6.25 0.5859375 C-3 0 -3 0 0 0 Z " fill="#A1DFE4" transform="translate(106,70)"/>
<path d="M0 0 C0 0.66 0 1.32 0 2 C0.99 1.67 1.98 1.34 3 1 C3 2.98 3 4.96 3 7 C4.98 7 6.96 7 9 7 C9 7.66 9 8.32 9 9 C7.02 9 5.04 9 3 9 C3.33 16.26 3.66 23.52 4 31 C3.01 30.67 2.02 30.34 1 30 C1.33 29.67 1.66 29.34 2 29 C2.07271741 26.64686445 2.08370868 24.29166332 2.0625 21.9375 C2.05347656 20.64714844 2.04445313 19.35679688 2.03515625 18.02734375 C2.02355469 17.02832031 2.01195313 16.02929688 2 15 C0.72125 14.855625 -0.5575 14.71125 -1.875 14.5625 C-4.25692894 14.29357254 -5.84452691 14.07773654 -8 13 C-10.37402501 12.92883618 -12.75000677 12.91590915 -15.125 12.9375 C-16.40632813 12.94652344 -17.68765625 12.95554687 -19.0078125 12.96484375 C-19.99523438 12.97644531 -20.98265625 12.98804687 -22 13 C-21.34 12.67 -20.68 12.34 -20 12 C-20 11.34 -20 10.68 -20 10 C-20.99 9.67 -21.98 9.34 -23 9 C-24.1875 5.4375 -24.1875 5.4375 -25 2 C-24.01 2.33 -23.02 2.66 -22 3 C-22 4.65 -22 6.3 -22 8 C-19.69 8 -17.38 8 -15 8 C-15 6.68 -15 5.36 -15 4 C-14.16855469 3.69255859 -14.16855469 3.69255859 -13.3203125 3.37890625 C-12.59585938 3.10949219 -11.87140625 2.84007813 -11.125 2.5625 C-10.40570313 2.29566406 -9.68640625 2.02882813 -8.9453125 1.75390625 C-5.62279099 0.46626237 -3.63993112 -0.09578766 0 0 Z " fill="#F6F9FA" transform="translate(63,99)"/>
<path d="M0 0 C7.92 0 15.84 0 24 0 C24 0.99 24 1.98 24 3 C18.39 3 12.78 3 7 3 C7 5.31 7 7.62 7 10 C11.95 10 16.9 10 22 10 C22 10.99 22 11.98 22 13 C17.05 13 12.1 13 7 13 C7 16.3 7 19.6 7 23 C4.69 23 2.38 23 0 23 C0 15.41 0 7.82 0 0 Z " fill="#0850AE" transform="translate(73,84)"/>
<path d="M0 0 C0.66 0.66 1.32 1.32 2 2 C1.67 5.3 1.34 8.6 1 12 C8.92 11.67 16.84 11.34 25 11 C24.34 11.33 23.68 11.66 23 12 C23 12.66 23 13.32 23 14 C22.34 14 21.68 14 21 14 C21 14.99 21 15.98 21 17 C17.39006828 18.13480527 14.0157673 18.10015767 10.25 18.0625 C9.07953125 18.05347656 7.9090625 18.04445312 6.703125 18.03515625 C5.81109375 18.02355469 4.9190625 18.01195312 4 18 C4 18.66 4 19.32 4 20 C2.02 20 0.04 20 -2 20 C-2.33 19.01 -2.66 18.02 -3 17 C-5.64 16.67 -8.28 16.34 -11 16 C-11.33 17.32 -11.66 18.64 -12 20 C-12 18.35 -12 16.7 -12 15 C-15.3 14.67 -18.6 14.34 -22 14 C-22 13.67 -22 13.34 -22 13 C-18.7 13 -15.4 13 -12 13 C-12 12.34 -12 11.68 -12 11 C-8.04 11.33 -4.08 11.66 0 12 C0 8.04 0 4.08 0 0 Z " fill="#D9F1F3" transform="translate(106,135)"/>
<path d="M0 0 C0 0.66 0 1.32 0 2 C1.32 2.33 2.64 2.66 4 3 C3.52949219 3.51949219 3.05898438 4.03898437 2.57421875 4.57421875 C-1.29230791 8.8371041 -1.29230791 8.8371041 -4.4375 13.625 C-7.2381124 17.88193085 -11.31520232 21.29803252 -16.30078125 22.6015625 C-18.5 22.875 -18.5 22.875 -22 23 C-21.01307877 14.45174385 -12.86477791 8.53224195 -6.5625 3.375 C-2.30039526 0 -2.30039526 0 0 0 Z " fill="#A3E1E5" transform="translate(57,34)"/>
<path d="M0 0 C0 4.29 0 8.58 0 13 C-4.95 13 -9.9 13 -15 13 C-15 12.34 -15 11.68 -15 11 C-15.969375 10.855625 -16.93875 10.71125 -17.9375 10.5625 C-21 10 -21 10 -22 9 C-22.04063832 7.33382885 -22.042721 5.66611905 -22 4 C-20.95199219 3.79503906 -19.90398437 3.59007812 -18.82421875 3.37890625 C-17.44529231 3.10687314 -16.06638717 2.83473209 -14.6875 2.5625 C-13.65206055 2.36043945 -13.65206055 2.36043945 -12.59570312 2.15429688 C-1.7191311 0 -1.7191311 0 0 0 Z " fill="#A3E1E5" transform="translate(106,183)"/>
<path d="M0 0 C0 0.66 0 1.32 0 2 C-1.98 2 -3.96 2 -6 2 C-5.67 3.175625 -5.34 4.35125 -5 5.5625 C-4.61750912 8.51763499 -4.6794172 9.57699724 -6.50390625 11.984375 C-12.40213822 17.2222736 -16.94595737 20 -25 20 C-25 15.71 -25 11.42 -25 7 C-20.19030352 7.80161608 -15.69953288 8.78460356 -11 10 C-11 7.03 -11 4.06 -11 1 C-7.27569643 0.30710631 -3.78916254 -0.11144596 0 0 Z " fill="#A5E2E6" transform="translate(132,176)"/>
<path d="M0 0 C7.90709331 0.645477 15.39133967 2.86997139 23 5 C23 6.65 23 8.3 23 10 C24.65 9.34 26.3 8.68 28 8 C28 8.99 28 9.98 28 11 C18.58997722 13.29612756 18.58997722 13.29612756 14 13 C14 11.35 14 9.7 14 8 C11.36 8.66 8.72 9.32 6 10 C6 10.66 6 11.32 6 12 C4.02 12.33 2.04 12.66 0 13 C0 8.71 0 4.42 0 0 Z " fill="#A5E2E6" transform="translate(107,162)"/>
<path d="M0 0 C2.46728065 1.23364032 2.75124531 2.15174442 3.9453125 4.59765625 C4.29980469 5.31630859 4.65429688 6.03496094 5.01953125 6.77539062 C5.38433594 7.53013672 5.74914062 8.28488281 6.125 9.0625 C6.49753906 9.82111328 6.87007813 10.57972656 7.25390625 11.36132812 C8.1746608 13.23825087 9.08802864 15.11879396 10 17 C12.27149389 17.71399976 12.27149389 17.71399976 15 17 C17.16811741 14.40968696 18.67038239 11.47478884 20.25 8.5 C21.12750794 6.90476159 22.00757018 5.3109246 22.890625 3.71875 C23.27250977 3.00654297 23.65439453 2.29433594 24.04785156 1.56054688 C24.36206055 1.04556641 24.67626953 0.53058594 25 0 C25.33 0 25.66 0 26 0 C26 5.61 26 11.22 26 17 C24.02 17 22.04 17 20 17 C18.64631404 18.31266518 17.31200404 19.64567325 16 21 C12.69494829 21.59321441 11.40136251 21.25728366 8.5625 19.4375 C5.59885815 17.4234952 5.59885815 17.4234952 0 19 C0 12.73 0 6.46 0 0 Z " fill="#C5D3DB" transform="translate(104,89)"/>
<path d="M0 0 C2 3.75 2 3.75 2 6 C2.66 6.33 3.32 6.66 4 7 C3.2886792 7.10022461 2.5773584 7.20044922 1.84448242 7.30371094 C-1.3773845 7.76792504 -4.59466977 8.25861624 -7.8125 8.75 C-8.93205078 8.90726563 -10.05160156 9.06453125 -11.20507812 9.2265625 C-12.27822266 9.39414062 -13.35136719 9.56171875 -14.45703125 9.734375 C-15.9416687 9.95432129 -15.9416687 9.95432129 -17.45629883 10.17871094 C-20.56148365 11.18128717 -21.440073 12.17054427 -23 15 C-23.36917274 17.64902575 -23.59968888 20.09559527 -23.6875 22.75 C-23.72166016 23.44738281 -23.75582031 24.14476563 -23.79101562 24.86328125 C-23.87308295 26.57497108 -23.93822919 28.2874576 -24 30 C-26 28 -26 28 -26.22705078 25.75341797 C-26.21657715 24.84221191 -26.20610352 23.93100586 -26.1953125 22.9921875 C-26.18886719 22.00605469 -26.18242188 21.01992188 -26.17578125 20.00390625 C-26.15902344 18.97136719 -26.14226562 17.93882813 -26.125 16.875 C-26.11597656 15.83472656 -26.10695313 14.79445313 -26.09765625 13.72265625 C-26.07403747 11.14820908 -26.04110149 8.57421788 -26 6 C-23.04335481 4.5216774 -20.25770263 4.93967217 -17 5 C-17 5.66 -17 6.32 -17 7 C-16.01 7 -15.02 7 -14 7 C-13.67 5.68 -13.34 4.36 -13 3 C-11.02 3 -9.04 3 -7 3 C-7 2.34 -7 1.68 -7 1 C-3.535 0.505 -3.535 0.505 0 0 Z " fill="#CFEDF0" transform="translate(132,33)"/>
<path d="M0 0 C-0.5234375 2.79296875 -0.5234375 2.79296875 -2 6 C-4.64173777 7.44177222 -6.81185649 8.39605851 -9.625 9.3125 C-10.31207031 9.56322266 -10.99914062 9.81394531 -11.70703125 10.07226562 C-16.46121253 11.73578309 -20.99027509 12.52154313 -26 13 C-27.49821059 9.62902617 -28 7.79557881 -28 4 C-27.39003174 3.91435791 -26.78006348 3.82871582 -26.15161133 3.74047852 C-23.37169549 3.34930936 -20.59209736 2.95592556 -17.8125 2.5625 C-16.37293945 2.36043945 -16.37293945 2.36043945 -14.90429688 2.15429688 C-13.97294922 2.02216797 -13.04160156 1.89003906 -12.08203125 1.75390625 C-11.22843018 1.63345947 -10.3748291 1.5130127 -9.49536133 1.38891602 C-7.75907173 1.11830557 -6.02943451 0.80278926 -4.30737305 0.45288086 C-2 0 -2 0 0 0 Z " fill="#A4E2E6" transform="translate(174,129)"/>
<path d="M0 0 C1.89575251 -0.02721176 3.79161979 -0.04649136 5.6875 -0.0625 C6.74324219 -0.07410156 7.79898438 -0.08570312 8.88671875 -0.09765625 C11.72410262 -0.00865425 14.2438919 0.35060162 17 1 C16.47729735 5.90309806 14.9987369 9.18388507 12.4375 13.375 C11.47650391 14.96441406 11.47650391 14.96441406 10.49609375 16.5859375 C10.00238281 17.38257812 9.50867188 18.17921875 9 19 C6.31284765 15.7903458 4.12433309 12.68038119 2.25 8.9375 C1.82203125 8.10089844 1.3940625 7.26429687 0.953125 6.40234375 C0 4 0 4 0 0 Z " fill="#EEF3F5" transform="translate(110,82)"/>
<path d="M0 0 C-0.33 2.31 -0.66 4.62 -1 7 C0.48030272 6.18957164 1.95921142 5.37659652 3.4375 4.5625 C4.26121094 4.11003906 5.08492187 3.65757813 5.93359375 3.19140625 C7.92308798 2.16337603 7.92308798 2.16337603 9 1 C10.66617115 0.95936168 12.33388095 0.957279 14 1 C13.67 2.32 13.34 3.64 13 5 C12.01 5 11.02 5 10 5 C10 5.99 10 6.98 10 8 C2.74 8 -4.52 8 -12 8 C-12 13.94 -12 19.88 -12 26 C-13.32 25.67 -14.64 25.34 -16 25 C-15.11627907 8.23255814 -15.11627907 8.23255814 -13 4 C-9.05635456 1.04226592 -4.98303766 -0.62287971 0 0 Z " fill="#9DD8DD" transform="translate(53,76)"/>
<path d="M0 0 C6.93 0 13.86 0 21 0 C21 3.3 21 6.6 21 10 C14.07 9.67 7.14 9.34 0 9 C0 6.03 0 3.06 0 0 Z " fill="#A2DBE1" transform="translate(80,97)"/>
<path d="M0 0 C2.58668641 -0.3596783 4.85085516 -0.50973338 7.4375 -0.5 C8.11876953 -0.52835937 8.80003906 -0.55671875 9.50195312 -0.5859375 C11.49609375 -0.59375 11.49609375 -0.59375 15 0 C16.97899821 2.41398593 18 3.85492577 18 7 C20.64 7 23.28 7 26 7 C25.67 5.68 25.34 4.36 25 3 C25.99 3 26.98 3 28 3 C28 5.97 28 8.94 28 12 C20.52165033 11.51172287 13.31074682 10.66594452 6 9 C6 8.67 6 8.34 6 8 C9.3 8 12.6 8 16 8 C16 7.34 16 6.68 16 6 C13.03 6 10.06 6 7 6 C7 5.34 7 4.68 7 4 C4.69 3.67 2.38 3.34 0 3 C-0.2475 3.61875 -0.495 4.2375 -0.75 4.875 C-2.20628639 7.35068687 -3.37812506 7.95125002 -6 9 C-6 7 -6 7 -4.125 5.0625 C-3.42375 4.381875 -2.7225 3.70125 -2 3 C-1.34 2.01 -0.68 1.02 0 0 Z " fill="#ACD8DC" transform="translate(148,100)"/>
<path d="M0 0 C0.66 6.27 1.32 12.54 2 19 C-7.11160714 14.44419643 -7.11160714 14.44419643 -10.875 11.0625 C-11.61492188 10.41410156 -12.35484375 9.76570313 -13.1171875 9.09765625 C-15.14900406 6.83399341 -16.05166652 4.86995657 -17 2 C-13.22454612 3.09068668 -10.52956528 3.9083091 -8 7 C-8 5.35 -8 3.7 -8 2 C-1.125 0 -1.125 0 0 0 Z " fill="#A7E2E6" transform="translate(36,114)"/>
<path d="M0 0 C2.475 0.495 2.475 0.495 5 1 C5 4.96 5 8.92 5 13 C2.69 13 0.38 13 -2 13 C-2.33 11.35 -2.66 9.7 -3 8 C-3.66 8 -4.32 8 -5 8 C-5 7.34 -5 6.68 -5 6 C-9.71561188 7.2346724 -9.71561188 7.2346724 -14.1875 9.125 C-16 10 -16 10 -20 10 C-20.33 11.32 -20.66 12.64 -21 14 C-21 10.7 -21 7.4 -21 4 C-19.46279297 3.92652344 -19.46279297 3.92652344 -17.89453125 3.8515625 C-16.5338294 3.77648929 -15.17315356 3.70094345 -13.8125 3.625 C-13.13896484 3.5940625 -12.46542969 3.563125 -11.77148438 3.53125 C-5.36540438 3.19117622 -5.36540438 3.19117622 0 0 Z " fill="#A1D8DC" transform="translate(68,93)"/>
<path d="M0 0 C0.86646667 1.43011973 1.71781829 2.86940619 2.5625 4.3125 C3.03816406 5.11300781 3.51382813 5.91351563 4.00390625 6.73828125 C5 9 5 9 4 12 C2.02 9.36 0.04 6.72 -2 4 C-5.60079204 5.80039602 -7.28782917 7.19742348 -10 10 C-12.95664519 11.4783226 -15.74229737 11.06032783 -19 11 C-19 8.03 -19 5.06 -19 2 C-12.50346094 0.32347379 -6.69954272 -0.25175735 0 0 Z " fill="#A5E2E6" transform="translate(162,52)"/>
<path d="M0 0 C5.61 2.31 11.22 4.62 17 7 C16.67 7.99 16.34 8.98 16 10 C12.67506623 10.71496488 9.34129409 11.36622595 6 12 C5.18917969 12.1753125 4.37835938 12.350625 3.54296875 12.53125 C-2.0090109 13.51490568 -2.0090109 13.51490568 -4.89453125 12.015625 C-6.5625 10.6875 -6.5625 10.6875 -9 8 C-9 7.34 -9 6.68 -9 6 C-4.545 6.99 -4.545 6.99 0 8 C-0.2784375 6.2984375 -0.2784375 6.2984375 -0.5625 4.5625 C-0.706875 3.386875 -0.85125 2.21125 -1 1 C-0.67 0.67 -0.34 0.34 0 0 Z " fill="#D5EFF2" transform="translate(51,162)"/>
<path d="M0 0 C0.87527344 -0.00257812 1.75054687 -0.00515625 2.65234375 -0.0078125 C5.0625 0.125 5.0625 0.125 8.0625 1.125 C7.5625 3.4375 7.5625 3.4375 6.0625 6.125 C3.32879054 7.39422225 0.92699485 8.29109278 -1.9375 9.125 C-2.845 9.40472656 -3.7525 9.68445312 -4.6875 9.97265625 C-7.09908249 10.70914806 -9.51509379 11.42508345 -11.9375 12.125 C-12.5975 11.135 -13.2575 10.145 -13.9375 9.125 C-12.81645467 7.80912059 -11.69053035 6.49739647 -10.5625 5.1875 C-9.93601562 4.45660156 -9.30953125 3.72570313 -8.6640625 2.97265625 C-5.86679785 -0.02079664 -3.96609977 -0.01164787 0 0 Z " fill="#A3E1E5" transform="translate(71.9375,32.875)"/>
<path d="M0 0 C0.66 0 1.32 0 2 0 C0.51057634 5.29572856 -2.53779927 9.80952648 -7 13 C-11.72485994 14.10809215 -17.50799409 15.24600296 -22 13 C-21.42655063 10.13275314 -21.1385485 9.1385485 -19 7 C-17.24414062 6.34570312 -17.24414062 6.34570312 -15.15625 5.78125 C-14.40472656 5.57113281 -13.65320313 5.36101562 -12.87890625 5.14453125 C-11.29296875 4.71484375 -9.70703125 4.28515625 -8.12109375 3.85546875 C-7.36957031 3.64535156 -6.61804688 3.43523437 -5.84375 3.21875 C-5.15474609 3.03248047 -4.46574219 2.84621094 -3.75585938 2.65429688 C-1.77909794 2.05622467 -1.77909794 2.05622467 0 0 Z " fill="#A5E2E6" transform="translate(155,167)"/>
<path d="M0 0 C-1.41963409 5.67853635 -4.39363961 9.53174216 -8 14 C-12.05606165 13.53199289 -15.46588679 13.12046792 -19 11 C-17.49829158 7.05364996 -15.25760206 5.49256525 -11.75 3.25 C-10.81671875 2.63640625 -9.8834375 2.0228125 -8.921875 1.390625 C-5.68027237 -0.15216984 -3.54463025 -0.27266387 0 0 Z " fill="#A4E1E5" transform="translate(192,128)"/>
<path d="M0 0 C3.76482152 1.48110561 5.33436705 3.48774681 7.5625 6.8125 C8.43068359 8.09060547 8.43068359 8.09060547 9.31640625 9.39453125 C10.14978516 10.68423828 10.14978516 10.68423828 11 12 C11.84884766 13.30517578 11.84884766 13.30517578 12.71484375 14.63671875 C14 17 14 17 14 20 C13.34 20 12.68 20 12 20 C12 19.34 12 18.68 12 18 C11.43410156 17.91492188 10.86820313 17.82984375 10.28515625 17.7421875 C7.32790795 16.78171369 5.71472121 15.22882873 3.4375 13.125 C2.67308594 12.42632812 1.90867188 11.72765625 1.12109375 11.0078125 C-0.61519085 9.36425765 -2.32306418 7.70372393 -4 6 C-2.68 6 -1.36 6 0 6 C0 4.02 0 2.04 0 0 Z " fill="#ADE4E7" transform="translate(171,47)"/>
<path d="M0 0 C1.37478516 0.01740234 1.37478516 0.01740234 2.77734375 0.03515625 C3.69644531 0.04417969 4.61554687 0.05320312 5.5625 0.0625 C6.27277344 0.07410156 6.98304687 0.08570312 7.71484375 0.09765625 C7.71484375 0.75765625 7.71484375 1.41765625 7.71484375 2.09765625 C10.02484375 2.42765625 12.33484375 2.75765625 14.71484375 3.09765625 C14.71484375 6.06765625 14.71484375 9.03765625 14.71484375 12.09765625 C13.06484375 12.09765625 11.41484375 12.09765625 9.71484375 12.09765625 C9.15796875 10.96328125 8.60109375 9.82890625 8.02734375 8.66015625 C6.29255615 5.54296794 6.29255615 5.54296794 2.96484375 4.16015625 C2.22234375 4.13953125 1.47984375 4.11890625 0.71484375 4.09765625 C0.05484375 5.41765625 -0.60515625 6.73765625 -1.28515625 8.09765625 C-3.28515625 6.09765625 -3.28515625 6.09765625 -3.47265625 3.53515625 C-3.22812286 0.35622221 -3.18216469 0.13598994 0 0 Z " fill="#A5E2E6" transform="translate(21.28515625,88.90234375)"/>
<path d="M0 0 C4.34464536 0.60825035 8.67551867 1.26167392 13 2 C13 2.33 13 2.66 13 3 C12.31292969 3.18175781 11.62585938 3.36351563 10.91796875 3.55078125 C9.56638672 3.92783203 9.56638672 3.92783203 8.1875 4.3125 C6.84751953 4.67794922 6.84751953 4.67794922 5.48046875 5.05078125 C2.82515524 6.0669091 1.77879458 6.82289398 0 9 C-0.67817415 11.10762741 -0.67817415 11.10762741 -0.94921875 13.44921875 C-1.07490234 14.29677734 -1.20058594 15.14433594 -1.33007812 16.01757812 C-1.44802734 16.89865234 -1.56597656 17.77972656 -1.6875 18.6875 C-1.88182617 20.02651367 -1.88182617 20.02651367 -2.08007812 21.39257812 C-2.39788911 23.59371344 -2.70406025 25.79583564 -3 28 C-3.33 28 -3.66 28 -4 28 C-4 25.03 -4 22.06 -4 19 C-5.65 19 -7.3 19 -9 19 C-9 18.67 -9 18.34 -9 18 C-7.35 18 -5.7 18 -4 18 C-4 13.38 -4 8.76 -4 4 C-4.66 3.67 -5.32 3.34 -6 3 C-5.01 3 -4.02 3 -3 3 C-2.67 3.66 -2.34 4.32 -2 5 C-1.34 3.35 -0.68 1.7 0 0 Z " fill="#D8EFF1" transform="translate(40,73)"/>
<path d="M0 0 C2.12472576 -0.05386629 4.24983652 -0.09273071 6.375 -0.125 C7.55835938 -0.14820312 8.74171875 -0.17140625 9.9609375 -0.1953125 C13 0 13 0 15 2 C15 3.32 15 4.64 15 6 C12.11584117 7.44207941 9.58278472 7.09394887 6.375 7.0625 C5.18648437 7.05347656 3.99796875 7.04445313 2.7734375 7.03515625 C1.85820313 7.02355469 0.94296875 7.01195313 0 7 C0 4.69 0 2.38 0 0 Z " fill="#72AEC2" transform="translate(47,87)"/>
<path d="M0 0 C5.94 0 11.88 0 18 0 C18 1.98 18 3.96 18 6 C14.7 6.33 11.4 6.66 8 7 C8 6.01 8 5.02 8 4 C5.36 4 2.72 4 0 4 C0 2.68 0 1.36 0 0 Z " fill="#A7E2E6" transform="translate(177,108)"/>
<path d="M0 0 C0.7528125 -0.01417969 1.505625 -0.02835937 2.28125 -0.04296875 C4.74864173 0.21332722 6.36356256 0.95904847 8.5 2.1875 C8.5 3.5075 8.5 4.8275 8.5 6.1875 C2.56 6.1875 -3.38 6.1875 -9.5 6.1875 C-9.17 4.5375 -8.84 2.8875 -8.5 1.1875 C-5.61288129 0.36729582 -2.99986689 0.02568379 0 0 Z " fill="#A9E3E7" transform="translate(186.5,99.8125)"/>
<path d="M0 0 C0 0.99 0 1.98 0 3 C0.66 3.33 1.32 3.66 2 4 C1.05125 4.433125 0.1025 4.86625 -0.875 5.3125 C-4.20041937 6.79302201 -4.20041937 6.79302201 -6 10 C-6.29991069 12.58885171 -6.50865225 15.09149082 -6.625 17.6875 C-6.66367188 18.38939453 -6.70234375 19.09128906 -6.7421875 19.81445312 C-6.8362334 21.54254655 -6.9191968 23.27123675 -7 25 C-9 23 -9 23 -9.22705078 20.75341797 C-9.21657715 19.84221191 -9.20610352 18.93100586 -9.1953125 17.9921875 C-9.18886719 17.00605469 -9.18242188 16.01992188 -9.17578125 15.00390625 C-9.15902344 13.97136719 -9.14226562 12.93882813 -9.125 11.875 C-9.11597656 10.83472656 -9.10695313 9.79445313 -9.09765625 8.72265625 C-9.07403747 6.14820908 -9.04110149 3.57421788 -9 1 C-6.04335481 -0.4783226 -3.25770263 -0.06032783 0 0 Z " fill="#B8E7EA" transform="translate(115,38)"/>
<path d="M0 0 C1.32 0 2.64 0 4 0 C5.04423876 1.6393118 6.03748026 3.31141079 7 5 C9.4642102 7.21008235 9.4642102 7.21008235 12.1875 9.1875 C13.82614571 10.41355395 15.44058069 11.67463987 17 13 C17 13.66 17 14.32 17 15 C13.75 15.75 13.75 15.75 10 16 C6.83142204 13.40420344 4.82104583 10.37904219 2.75 6.875 C2.22921875 6.00617188 1.7084375 5.13734375 1.171875 4.2421875 C0 2 0 2 0 0 Z " fill="#A8E2E6" transform="translate(26,145)"/>
<path d="M0 0 C1.134375 0.020625 2.26875 0.04125 3.4375 0.0625 C3.4375 0.3925 3.4375 0.7225 3.4375 1.0625 C1.4575 1.0625 -0.5225 1.0625 -2.5625 1.0625 C-2.89675735 3.43624861 -2.89675735 3.43624861 -2.5625 6.0625 C-1.9025 6.475 -1.2425 6.8875 -0.5625 7.3125 C1.4375 9.0625 1.4375 9.0625 1.703125 11.24609375 C1.68887556 13.52956597 1.60933098 15.78573958 1.4375 18.0625 C0.1175 18.0625 -1.2025 18.0625 -2.5625 18.0625 C-2.93375 16.391875 -2.93375 16.391875 -3.3125 14.6875 C-4.17255339 11.01634802 -4.17255339 11.01634802 -6.6875 9.625 C-7.30625 9.439375 -7.925 9.25375 -8.5625 9.0625 C-8.5625 7.7425 -8.5625 6.4225 -8.5625 5.0625 C-7.5725 5.0625 -6.5825 5.0625 -5.5625 5.0625 C-5.3459375 4.1034375 -5.3459375 4.1034375 -5.125 3.125 C-4.16977878 -0.37747781 -3.91378882 0.06866296 0 0 Z " fill="#E9EFF0" transform="translate(71.5625,75.9375)"/>
<path d="M0 0 C0.33 0.66 0.66 1.32 1 2 C0.22265625 4.1640625 0.22265625 4.1640625 -0.9375 6.625 C-1.31777344 7.44226562 -1.69804688 8.25953125 -2.08984375 9.1015625 C-2.39019531 9.72804688 -2.69054687 10.35453125 -3 11 C-6.5742977 10.67506385 -8.55712453 10.36129314 -11.375 8.0625 C-13 6 -13 6 -13 4 C-8.71 2.68 -4.42 1.36 0 0 Z " fill="#A5E2E6" transform="translate(75,42)"/>
<path d="M0 0 C-0.33 0.99 -0.66 1.98 -1 3 C-4.90061415 4.43158611 -9.13503388 4.34075713 -13.25 4.5625 C-14.36761719 4.62727539 -14.36761719 4.62727539 -15.5078125 4.69335938 C-17.338349 4.79896725 -19.16915176 4.89994201 -21 5 C-21 3.35 -21 1.7 -21 0 C-17.87549468 -0.19645093 -14.75038555 -0.38063489 -11.625 -0.5625 C-10.29082031 -0.64661133 -10.29082031 -0.64661133 -8.9296875 -0.73242188 C-7.65351562 -0.80493164 -7.65351562 -0.80493164 -6.3515625 -0.87890625 C-5.56604004 -0.9260376 -4.78051758 -0.97316895 -3.97119141 -1.02172852 C-2 -1 -2 -1 0 0 Z " fill="#A6E2E6" transform="translate(128,149)"/>
<path d="M0 0 C0.33 0 0.66 0 1 0 C1 5.61 1 11.22 1 17 C0.67 16.34 0.34 15.68 0 15 C-2.64 15 -5.28 15 -8 15 C-6.85657478 12.68628057 -5.71038936 10.37400323 -4.5625 8.0625 C-4.23701172 7.40314453 -3.91152344 6.74378906 -3.57617188 6.06445312 C-1.11328125 1.11328125 -1.11328125 1.11328125 0 0 Z " fill="#94C2CE" transform="translate(129,89)"/>
<path d="M0 0 C0.61875 0.680625 1.2375 1.36125 1.875 2.0625 C5.19366593 5.41964322 9.08281418 7.92422558 12.98828125 10.546875 C13.65214844 11.02640625 14.31601562 11.5059375 15 12 C15 12.33 15 12.66 15 13 C11.37 13.33 7.74 13.66 4 14 C-0.57142857 4.42857143 -0.57142857 4.42857143 0 0 Z " fill="#A8E2E6" transform="translate(19,121)"/>
<path d="M0 0 C3.96 0.33 7.92 0.66 12 1 C12 3.31 12 5.62 12 8 C11.29875 7.690625 10.5975 7.38125 9.875 7.0625 C6.91063343 5.96697322 4.12301892 5.43577008 1 5 C0.67 6.32 0.34 7.64 0 9 C0 7.35 0 5.7 0 4 C-3.3 3.67 -6.6 3.34 -10 3 C-10 2.67 -10 2.34 -10 2 C-6.7 2 -3.4 2 0 2 C0 1.34 0 0.68 0 0 Z " fill="#D6F0F2" transform="translate(94,146)"/>
<path d="M0 0 C0 1.98 0 3.96 0 6 C1.98 6 3.96 6 6 6 C6 6.66 6 7.32 6 8 C4.02 8 2.04 8 0 8 C0.33 15.26 0.66 22.52 1 30 C0.01 29.67 -0.98 29.34 -2 29 C-1.67 28.67 -1.34 28.34 -1 28 C-0.92728259 25.64686445 -0.91629132 23.29166332 -0.9375 20.9375 C-0.94652344 19.64714844 -0.95554687 18.35679688 -0.96484375 17.02734375 C-0.97644531 16.02832031 -0.98804687 15.02929688 -1 14 C-2.65 14 -4.3 14 -6 14 C-6 13.67 -6 13.34 -6 13 C-4.35 13 -2.7 13 -1 13 C-1 12.34 -1 11.68 -1 11 C-1.66 11 -2.32 11 -3 11 C-3 7.7 -3 4.4 -3 1 C-1 0 -1 0 0 0 Z " fill="#DFF2F5" transform="translate(66,100)"/>
<path d="M0 0 C0 1.32 0 2.64 0 4 C-1.76858691 4.67260351 -3.53996016 5.33788395 -5.3125 6 C-6.29863281 6.37125 -7.28476563 6.7425 -8.30078125 7.125 C-11 8 -11 8 -14 8 C-13.67 5.69 -13.34 3.38 -13 1 C-11.39602723 0.83147753 -9.7918131 0.66525114 -8.1875 0.5 C-7.29417969 0.4071875 -6.40085938 0.314375 -5.48046875 0.21875 C-3 0 -3 0 0 0 Z " fill="#D5EFF2" transform="translate(151,166)"/>
<path d="M0 0 C4.95 0 9.9 0 15 0 C14.34 1.32 13.68 2.64 13 4 C10.65321673 4.52539924 8.49408623 4.5000768 6.09375 4.53125 C5.4028125 4.6859375 4.711875 4.840625 4 5 C2.66965923 6.95070395 2.66965923 6.95070395 2 9 C1.34 9 0.68 9 0 9 C0 6.03 0 3.06 0 0 Z " fill="#96D0D4" transform="translate(80,97)"/>
<path d="M0 0 C3.3 0 6.6 0 10 0 C10.33 2.31 10.66 4.62 11 7 C8.36 6.01 5.72 5.02 3 4 C3 6.64 3 9.28 3 12 C0.9375 9.9375 0.9375 9.9375 -1 7 C-0.75 3.1875 -0.75 3.1875 0 0 Z " fill="#A4DFE3" transform="translate(163,79)"/>
<path d="M0 0 C0 0.66 0 1.32 0 2 C-1.85625 2.680625 -1.85625 2.680625 -3.75 3.375 C-6.01485604 4.21634617 -8.11075943 5.05845637 -10.25 6.1875 C-12 7 -12 7 -16 7 C-16.33 8.32 -16.66 9.64 -17 11 C-17 7.7 -17 4.4 -17 1 C-14.54171921 0.83252588 -12.08338135 0.6659856 -9.625 0.5 C-8.92632812 0.45230469 -8.22765625 0.40460938 -7.5078125 0.35546875 C-2.2265625 0 -2.2265625 0 0 0 Z " fill="#85BDCA" transform="translate(64,96)"/>
<path d="M0 0 C2.64 0 5.28 0 8 0 C8 0.66 8 1.32 8 2 C9.65 2.33 11.3 2.66 13 3 C13 3.33 13 3.66 13 4 C10.36 4 7.72 4 5 4 C4.731875 4.7425 4.46375 5.485 4.1875 6.25 C3 9 3 9 0 13 C0 8.71 0 4.42 0 0 Z " fill="#9CD8DF" transform="translate(148,80)"/>
<path d="M0 0 C1.45922693 0.11409593 2.91740598 0.24165544 4.375 0.375 C5.59316406 0.47941406 5.59316406 0.47941406 6.8359375 0.5859375 C9 1 9 1 11 3 C11 3.66 11 4.32 11 5 C12.65160781 6.67080281 12.65160781 6.67080281 14.75 8.375 C20.83550489 13.564943 20.83550489 13.564943 23 16 C23 16.66 23 17.32 23 18 C19.6902684 16.57212906 17.68761403 14.82153334 15.25 12.1875 C11.93489576 8.75399918 8.64089714 6.30249343 4.46875 4.0078125 C3.9840625 3.67523437 3.499375 3.34265625 3 3 C3 2.34 3 1.68 3 1 C2.01 0.67 1.02 0.34 0 0 Z " fill="#D7EFF2" transform="translate(132,23)"/>
<path d="M0 0 C2.64 0.33 5.28 0.66 8 1 C8 1.66 8 2.32 8 3 C8.928125 3.0928125 8.928125 3.0928125 9.875 3.1875 C12 4 12 4 13.3125 6.375 C14 9 14 9 13 12 C11.39097942 10.75625426 9.78796893 9.50473101 8.1875 8.25 C7.29417969 7.55390625 6.40085937 6.8578125 5.48046875 6.140625 C3.25694367 4.22174036 1.6399079 2.41900036 0 0 Z " fill="#ABE3E7" transform="translate(32,146)"/>
<path d="M0 0 C-0.99 0.66 -1.98 1.32 -3 2 C-0.36 3.98 2.28 5.96 5 8 C2 10 2 10 -1 10 C-1 9.34 -1 8.68 -1 8 C-1.969375 7.855625 -2.93875 7.71125 -3.9375 7.5625 C-7 7 -7 7 -8 6 C-8.04063832 4.33382885 -8.042721 2.66611905 -8 1 C-5.07175348 0.02391783 -3.04386724 -0.08226668 0 0 Z " fill="#DAF1F4" transform="translate(92,186)"/>
<path d="M0 0 C4.29 0 8.58 0 13 0 C12.01 0.495 12.01 0.495 11 1 C12.32 5.29 13.64 9.58 15 14 C16.98 13.67 18.96 13.34 21 13 C21.33 13.66 21.66 14.32 22 15 C19.32521756 16.6627026 17.0004856 17.99983813 14 19 C13.16112944 16.56427941 12.32873471 14.12666783 11.5 11.6875 C11.26152344 10.99720703 11.02304688 10.30691406 10.77734375 9.59570312 C9.76791737 6.61068511 9 4.17341086 9 1 C6.03 1 3.06 1 0 1 C0 0.67 0 0.34 0 0 Z " fill="#DFF3F5" transform="translate(61,151)"/>
<path d="M0 0 C0.33 0.66 0.66 1.32 1 2 C1.83144531 1.74863281 1.83144531 1.74863281 2.6796875 1.4921875 C3.76636719 1.18667969 3.76636719 1.18667969 4.875 0.875 C5.59429687 0.66617188 6.31359375 0.45734375 7.0546875 0.2421875 C7.69664062 0.16226563 8.33859375 0.08234375 9 0 C9.66 0.66 10.32 1.32 11 2 C9.02 4.31 7.04 6.62 5 9 C4.67 8.34 4.34 7.68 4 7 C2.67203709 6.64587656 1.33783393 6.31478446 0 6 C-0.99 5.34 -1.98 4.68 -3 4 C-2.34 4 -1.68 4 -1 4 C-0.67 2.68 -0.34 1.36 0 0 Z " fill="#CDEEF1" transform="translate(167,150)"/>
<path d="M0 0 C5.28 0 10.56 0 16 0 C13.41073669 2.58926331 11.97294721 2.37398043 8.375 2.625 C7.37210937 2.69976562 6.36921875 2.77453125 5.3359375 2.8515625 C4.17964844 2.92503906 4.17964844 2.92503906 3 3 C2.67 3.99 2.34 4.98 2 6 C6.29 6 10.58 6 15 6 C15 6.33 15 6.66 15 7 C10.05 7 5.1 7 0 7 C0 4.69 0 2.38 0 0 Z " fill="#C5CEDA" transform="translate(80,87)"/>
<path d="M0 0 C5.19525146 1.3606611 8.17555757 3.35767388 12 7 C12 7.66 12 8.32 12 9 C10.5608866 8.71640113 9.12374482 8.42278601 7.6875 8.125 C6.88699219 7.96257812 6.08648437 7.80015625 5.26171875 7.6328125 C3 7 3 7 0 5 C-0.1875 2.375 -0.1875 2.375 0 0 Z " fill="#A8E2E6" transform="translate(175,82)"/>
<path d="M0 0 C4.29 0 8.58 0 13 0 C12.67 0.99 12.34 1.98 12 3 C12 2.34 12 1.68 12 1 C8.00318359 1.97881218 4.7613346 3.02379915 1.25 5.1875 C-0.35875 6.0846875 -0.35875 6.0846875 -2 7 C-2.99 6.67 -3.98 6.34 -5 6 C-5 4.68 -5 3.36 -5 2 C-3.35 2 -1.7 2 0 2 C0 1.34 0 0.68 0 0 Z " fill="#CCECEF" transform="translate(180,127)"/>
<path d="M0 0 C2.92824652 2.92824652 4.27239967 5.2979993 6 9 C2.37 9 -1.26 9 -5 9 C-3.35 6.03 -1.7 3.06 0 0 Z " fill="#7EB7C2" transform="translate(155,88)"/>
<path d="M0 0 C0.8971875 0.309375 0.8971875 0.309375 1.8125 0.625 C1.02698343 1.94118998 0.2338763 3.25285228 -0.5625 4.5625 C-1.00335938 5.29339844 -1.44421875 6.02429688 -1.8984375 6.77734375 C-3.1875 8.625 -3.1875 8.625 -5.1875 9.625 C-5.91443904 11.60388961 -6.58566251 13.60454558 -7.1875 15.625 C-8.8375 15.295 -10.4875 14.965 -12.1875 14.625 C-11.78917969 14.17769531 -11.39085937 13.73039063 -10.98046875 13.26953125 C-8.00765875 9.87720061 -5.3592806 6.60659776 -3.1875 2.625 C-3.8475 2.295 -4.5075 1.965 -5.1875 1.625 C-2.1875 -0.375 -2.1875 -0.375 0 0 Z " fill="#DDF2F4" transform="translate(160.1875,164.375)"/>
<path d="M0 0 C4.62 0 9.24 0 14 0 C14 0.33 14 0.66 14 1 C11.36 1 8.72 1 6 1 C6 5.29 6 9.58 6 14 C5.34 14 4.68 14 4 14 C3.67 9.71 3.34 5.42 3 1 C2.34 1 1.68 1 1 1 C1 1.66 1 2.32 1 3 C0.01 2.67 -0.98 2.34 -2 2 C-1.34 2 -0.68 2 0 2 C0 1.34 0 0.68 0 0 Z " fill="#D4EFF1" transform="translate(142,79)"/>
<path d="M0 0 C0 0.99 0 1.98 0 3 C1.98 2.67 3.96 2.34 6 2 C-0.47969052 12.10831721 -0.47969052 12.10831721 -4 15 C-4.66 15 -5.32 15 -6 15 C-4.33248852 11.05860922 -1.77289351 8.2107188 1 5 C0.01 4.67 -0.98 4.34 -2 4 C-2 3.34 -2 2.68 -2 2 C-2.66 1.67 -3.32 1.34 -4 1 C-2 0 -2 0 0 0 Z " fill="#D8F1F3" transform="translate(59,32)"/>
<path d="M0 0 C0.99 0.33 1.98 0.66 3 1 C3 2.65 3 4.3 3 6 C5.31 6 7.62 6 10 6 C10.33 6.66 10.66 7.32 11 8 C14.02934491 8.65772428 14.02934491 8.65772428 17 9 C17 9.33 17 9.66 17 10 C12.38 10.33 7.76 10.66 3 11 C3.66 10.67 4.32 10.34 5 10 C5 9.34 5 8.68 5 8 C4.01 7.67 3.02 7.34 2 7 C0.8125 3.4375 0.8125 3.4375 0 0 Z " fill="#DDE7E8" transform="translate(38,101)"/>
<path d="M0 0 C0.33 1.32 0.66 2.64 1 4 C3.31 4 5.62 4 8 4 C7.01 5.98 6.02 7.96 5 10 C4.67 9.34 4.34 8.68 4 8 C4.33 7.01 4.66 6.02 5 5 C2.69 5.33 0.38 5.66 -2 6 C-2.33 9.96 -2.66 13.92 -3 18 C-3.33 18 -3.66 18 -4 18 C-4 12.39 -4 6.78 -4 1 C-3.67 1.99 -3.34 2.98 -3 4 C-2.01 4 -1.02 4 0 4 C0 2.68 0 1.36 0 0 Z " fill="#B0CFDD" transform="translate(140,89)"/>
<path d="M0 0 C0.99 0 1.98 0 3 0 C4 3 4 3 3.00390625 5.04296875 C2.52824219 5.75066406 2.05257813 6.45835938 1.5625 7.1875 C1.08941406 7.90292969 0.61632812 8.61835937 0.12890625 9.35546875 C-0.24363281 9.89816406 -0.61617187 10.44085938 -1 11 C-0.34 11.66 0.32 12.32 1 13 C-0.65 12.67 -2.3 12.34 -4 12 C-3.45660208 7.43545749 -2.20536179 4.0271824 0 0 Z " fill="#D4EEF1" transform="translate(25,69)"/>
<path d="M0 0 C3.16148422 1.58074211 5.16125509 2.81117697 7.75 5.0625 C8.67039063 5.85333984 8.67039063 5.85333984 9.609375 6.66015625 C10.06828125 7.10230469 10.5271875 7.54445313 11 8 C11 8.33 11 8.66 11 9 C8.36 9 5.72 9 3 9 C2.01 6.03 1.02 3.06 0 0 Z " fill="#A8E2E6" transform="translate(166,56)"/>
<path d="M0 0 C0 0.66 0 1.32 0 2 C-1.65 2.33 -3.3 2.66 -5 3 C-5 3.66 -5 4.32 -5 5 C-8.82320557 6.42258812 -11.91281305 7.24042276 -16 7 C-13.76308569 3.43859695 -12.03875253 2.33180871 -8 1.25 C-7.13375 1.00765625 -6.2675 0.7653125 -5.375 0.515625 C-3 0 -3 0 0 0 Z " fill="#ADE3E7" transform="translate(137,187)"/>
<path d="M0 0 C2.35424675 -0.02726927 4.70816962 -0.04696719 7.0625 -0.0625 C8.37347656 -0.07410156 9.68445313 -0.08570312 11.03515625 -0.09765625 C14.8163519 -0.00452335 18.27920707 0.38551274 22 1 C22 1.33 22 1.66 22 2 C20.35 2 18.7 2 17 2 C16.67 2.66 16.34 3.32 16 4 C10.72 3.34 5.44 2.68 0 2 C0 1.34 0 0.68 0 0 Z " fill="#D5F0F3" transform="translate(108,65)"/>
<path d="M0 0 C0.66 0.33 1.32 0.66 2 1 C1.67 1.66 1.34 2.32 1 3 C1.66 3.33 2.32 3.66 3 4 C1.7934375 4.4640625 1.7934375 4.4640625 0.5625 4.9375 C-1.89080405 5.76335345 -1.89080405 5.76335345 -3 7 C-1.68 7.66 -0.36 8.32 1 9 C-3.40914783 10.10228696 -7.48382401 10.07654536 -12 10 C-11.01 9.34 -10.02 8.68 -9 8 C-7.61051566 6.82948109 -6.23635602 5.64061722 -4.875 4.4375 C-4.17117187 3.81746094 -3.46734375 3.19742188 -2.7421875 2.55859375 C-1.81046549 1.7250577 -0.88399328 0.88399328 0 0 Z " fill="#D8F0F3" transform="translate(125,186)"/>
<path d="M0 0 C5.94 0 11.88 0 18 0 C17.01 0.66 16.02 1.32 15 2 C15.33 2.66 15.66 3.32 16 4 C14.02 4 12.04 4 10 4 C10 3.34 10 2.68 10 2 C6.7 2 3.4 2 0 2 C0 1.34 0 0.68 0 0 Z " fill="#C8EAEE" transform="translate(107,19)"/>
<path d="M0 0 C3.42347783 1.14115928 4.35203101 2.61312182 6.52734375 5.3671875 C8.99692745 8.10534662 11.94117264 9.96078176 15 12 C14.01 13.485 14.01 13.485 13 15 C13 14.34 13 13.68 13 13 C12.43796875 12.75121094 11.8759375 12.50242188 11.296875 12.24609375 C8.62288141 10.79540675 6.53580462 9.0681815 4.25 7.0625 C3.45078125 6.37285156 2.6515625 5.68320313 1.828125 4.97265625 C0 3 0 3 0 0 Z " fill="#D8F0F3" transform="translate(30,145)"/>
<path d="M0 0 C-0.33 1.32 -0.66 2.64 -1 4 C-1.99 4 -2.98 4 -4 4 C-4 4.99 -4 5.98 -4 7 C-6.64 6.67 -9.28 6.34 -12 6 C-8.86303674 1.29455512 -5.67063226 -0.48605419 0 0 Z " fill="#A5E1E4" transform="translate(67,77)"/>
<path d="M0 0 C0.91007812 0.10183594 1.82015625 0.20367187 2.7578125 0.30859375 C3.45648438 0.39238281 4.15515625 0.47617188 4.875 0.5625 C4.875 1.5525 4.875 2.5425 4.875 3.5625 C0.915 3.5625 -3.045 3.5625 -7.125 3.5625 C-7.125 2.5725 -7.125 1.5825 -7.125 0.5625 C-4.50184968 -0.74907516 -2.89466564 -0.33399988 0 0 Z " fill="#95D2D6" transform="translate(56.125,89.4375)"/>
<path d="M0 0 C0.33 0.66 0.66 1.32 1 2 C3.31 2 5.62 2 8 2 C5.17457671 3.88361553 4.18940682 4.31902686 1 4.6875 C0.319375 4.77386719 -0.36125 4.86023438 -1.0625 4.94921875 C-3 5 -3 5 -6 4 C-6 3.01 -6 2.02 -6 1 C-4.02 0.67 -2.04 0.34 0 0 Z " fill="#9CCFD2" transform="translate(80,106)"/>
<path d="M0 0 C1.37478516 0.01740234 1.37478516 0.01740234 2.77734375 0.03515625 C3.69644531 0.04417969 4.61554687 0.05320312 5.5625 0.0625 C6.27277344 0.07410156 6.98304687 0.08570312 7.71484375 0.09765625 C6.72484375 0.42765625 5.73484375 0.75765625 4.71484375 1.09765625 C4.71484375 1.75765625 4.71484375 2.41765625 4.71484375 3.09765625 C4.09609375 3.18015625 3.47734375 3.26265625 2.83984375 3.34765625 C0.53046808 3.91024084 0.53046808 3.91024084 -0.53515625 6.16015625 C-0.78265625 6.79953125 -1.03015625 7.43890625 -1.28515625 8.09765625 C-3.28515625 6.09765625 -3.28515625 6.09765625 -3.47265625 3.53515625 C-3.22812286 0.35622221 -3.18216469 0.13598994 0 0 Z " fill="#CBECEF" transform="translate(21.28515625,88.90234375)"/>
<path d="M0 0 C3.10408807 -0.05807043 6.2080364 -0.09361914 9.3125 -0.125 C10.19357422 -0.14175781 11.07464844 -0.15851563 11.98242188 -0.17578125 C12.82998047 -0.18222656 13.67753906 -0.18867187 14.55078125 -0.1953125 C15.72120972 -0.21102295 15.72120972 -0.21102295 16.9152832 -0.22705078 C19 0 19 0 22 2 C18.04 1.67 14.08 1.34 10 1 C10 1.66 10 2.32 10 3 C6.7 2.67 3.4 2.34 0 2 C0 1.34 0 0.68 0 0 Z " fill="#D1EDEF" transform="translate(81,106)"/>
<path d="M0 0 C0 2.66420516 -0.09162237 4.52260646 -1 7 C-3.75078884 7.91692961 -5.35948913 8.10886083 -8.1875 8.0625 C-10.0746875 8.0315625 -10.0746875 8.0315625 -12 8 C-11.42765625 7.73445313 -10.8553125 7.46890625 -10.265625 7.1953125 C-7.8923988 5.94323109 -5.87786714 4.5063648 -3.75 2.875 C-2.69039062 2.06675781 -2.69039062 2.06675781 -1.609375 1.2421875 C-1.07828125 0.83226562 -0.5471875 0.42234375 0 0 Z " fill="#DFF3F5" transform="translate(51,49)"/>
<path d="M0 0 C2 1.375 2 1.375 4 3 C4 3.66 4 4.32 4 5 C1.36 5.66 -1.28 6.32 -4 7 C-4.66 5.68 -5.32 4.36 -6 3 C-4.02 3 -2.04 3 0 3 C0 2.01 0 1.02 0 0 Z " fill="#A7E2E6" transform="translate(52,168)"/>
<path d="M0 0 C4.95 0 9.9 0 15 0 C15.66 1.32 16.32 2.64 17 4 C16.01 4.495 16.01 4.495 15 5 C15 4.34 15 3.68 15 3 C14.16855469 2.95101562 13.33710938 2.90203125 12.48046875 2.8515625 C11.39378906 2.77679688 10.30710938 2.70203125 9.1875 2.625 C8.10855469 2.55539063 7.02960938 2.48578125 5.91796875 2.4140625 C3 2 3 2 0 0 Z " fill="#71A8BF" transform="translate(148,100)"/>
<path d="M0 0 C0.66 0.33 1.32 0.66 2 1 C1.5251065 5.11574371 0.9789756 8.36383344 -1 12 C-1.02698189 10.37509046 -1.04638757 8.75005367 -1.0625 7.125 C-1.07410156 6.22007813 -1.08570313 5.31515625 -1.09765625 4.3828125 C-1 2 -1 2 0 0 Z M-9 11 C-6.36 11.33 -3.72 11.66 -1 12 C-1.99 13.485 -1.99 13.485 -3 15 C-4.65 14.67 -6.3 14.34 -8 14 C-8.33 13.01 -8.66 12.02 -9 11 Z " fill="#E4E7E7" transform="translate(138,95)"/>
<path d="M0 0 C2.64 0 5.28 0 8 0 C8 0.33 8 0.66 8 1 C6.35 1 4.7 1 3 1 C3 2.32 3 3.64 3 5 C3.99 5.33 4.98 5.66 6 6 C4.35 7.65 2.7 9.3 1 11 C0.34 10.67 -0.32 10.34 -1 10 C-0.01 7.03 0.98 4.06 2 1 C1.34 0.67 0.68 0.34 0 0 Z " fill="#E1F3F5" transform="translate(172,128)"/>
<path d="M0 0 C4.29 0 8.58 0 13 0 C13 0.66 13 1.32 13 2 C12.22914062 2.04898438 11.45828125 2.09796875 10.6640625 2.1484375 C9.66117188 2.22320312 8.65828125 2.29796875 7.625 2.375 C6.62726563 2.44460937 5.62953125 2.51421875 4.6015625 2.5859375 C1.84491121 2.76363964 1.84491121 2.76363964 0 5 C0 3.35 0 1.7 0 0 Z " fill="#85BCC4" transform="translate(80,97)"/>
<path d="M0 0 C-0.33 1.32 -0.66 2.64 -1 4 C-3.97 4 -6.94 4 -10 4 C-10 3.34 -10 2.68 -10 2 C-3.375 0 -3.375 0 0 0 Z " fill="#BFE9EB" transform="translate(91,20)"/>
<path d="M0 0 C2.97 0.33 5.94 0.66 9 1 C9 1.66 9 2.32 9 3 C1.57142857 5.42857143 1.57142857 5.42857143 -2 4 C-0.35 3.67 1.3 3.34 3 3 C3 2.34 3 1.68 3 1 C2.01 0.67 1.02 0.34 0 0 Z " fill="#D9EFF1" transform="translate(134,186)"/>
<path d="M0 0 C1.89213369 2.38573379 3.02391783 4.07175348 4 7 C2.02 7 0.04 7 -2 7 C-2 5.02 -2 3.04 -2 1 C-1.34 0.67 -0.68 0.34 0 0 Z " fill="#97CAD3" transform="translate(109,98)"/>
<path d="M0 0 C1 2 1 2 0.25 4.5 C-1 7 -1 7 -4 9 C-4 8.34 -4 7.68 -4 7 C-4.66 7 -5.32 7 -6 7 C-6 6.34 -6 5.68 -6 5 C-4.68 5 -3.36 5 -2 5 C-2 4.01 -2 3.02 -2 2 C-2.66 1.67 -3.32 1.34 -4 1 C-2.68 0.67 -1.36 0.34 0 0 Z " fill="#DDF2F5" transform="translate(137,168)"/>
<path d="M0 0 C-0.33 1.98 -0.66 3.96 -1 6 C-2.32 5.67 -3.64 5.34 -5 5 C-5 4.01 -5 3.02 -5 2 C-5.66 1.67 -6.32 1.34 -7 1 C-4 0 -4 0 0 0 Z " fill="#C6EBEF" transform="translate(143,144)"/>
<path d="M0 0 C3.63 0.33 7.26 0.66 11 1 C11 1.33 11 1.66 11 2 C9.56496445 2.36402369 8.12683494 2.71586591 6.6875 3.0625 C5.88699219 3.25972656 5.08648437 3.45695312 4.26171875 3.66015625 C2 4 2 4 -1 3 C-0.67 2.01 -0.34 1.02 0 0 Z " fill="#CDEDEF" transform="translate(42,74)"/>
<path d="M0 0 C1.48199902 0.44909061 2.96055236 0.90956564 4.4375 1.375 C5.26121094 1.63023437 6.08492187 1.88546875 6.93359375 2.1484375 C9 3 9 3 10 5 C6.6875 5.3125 6.6875 5.3125 3 5 C1.0625 2.5 1.0625 2.5 0 0 Z " fill="#AAE3E7" transform="translate(55,167)"/>
<path d="M0 0 C2.64 0 5.28 0 8 0 C8 0.33 8 0.66 8 1 C7.05125 1.309375 6.1025 1.61875 5.125 1.9375 C2.13919592 2.87394742 2.13919592 2.87394742 0 4 C0 2.68 0 1.36 0 0 Z M-7 4 C-5.35 4 -3.7 4 -2 4 C-1.67 4.66 -1.34 5.32 -1 6 C-2.65 6 -4.3 6 -6 6 C-6.33 5.34 -6.66 4.68 -7 4 Z " fill="#E2E9EA" transform="translate(121,104)"/>
<path d="M0 0 C1.32 0 2.64 0 4 0 C4.66 1.32 5.32 2.64 6 4 C3.03 4 0.06 4 -3 4 C-1.75 2 -1.75 2 0 0 Z " fill="#8CC7CD" transform="translate(155,93)"/>
<path d="M0 0 C0.33 1.32 0.66 2.64 1 4 C-4.94 3.01 -4.94 3.01 -11 2 C-11 1.67 -11 1.34 -11 1 C-7.26562152 0.12132271 -3.83225427 -0.08912219 0 0 Z " fill="#ADE2E6" transform="translate(131,35)"/>
<path d="M0 0 C4.1424367 1.38081223 5.32203099 3.59825558 8 7 C5.36 6.34 2.72 5.68 0 5 C0 3.35 0 1.7 0 0 Z " fill="#AEE2E7" transform="translate(85,188)"/>
<path d="M0 0 C2.64 0 5.28 0 8 0 C8 1.65 8 3.3 8 5 C5.36 3.68 2.72 2.36 0 1 C0 0.67 0 0.34 0 0 Z " fill="#AAE3E7" transform="translate(98,149)"/>
<path d="M0 0 C2.97 0 5.94 0 9 0 C6.04816899 2.95183101 3.04488053 3.08663988 -1 4 C-0.67 2.68 -0.34 1.36 0 0 Z " fill="#A8E2E6" transform="translate(138,168)"/>
<path d="M0 0 C1.65 0 3.3 0 5 0 C4.01 0.495 4.01 0.495 3 1 C3.60183749 3.02045442 4.27306096 5.02111039 5 7 C5.66 7.33 6.32 7.66 7 8 C5.68 8.33 4.36 8.66 3 9 C2.01 6.03 1.02 3.06 0 0 Z " fill="#DBF1F3" transform="translate(43,149)"/>
<path d="M0 0 C1.05877439 4.23509757 1.16694249 5.35559672 -1 9 C-2.65 9.33 -4.3 9.66 -6 10 C-4.02 6.7 -2.04 3.4 0 0 Z " fill="#DBF1F4" transform="translate(190,132)"/>
<path d="M0 0 C0.99 0.33 1.98 0.66 3 1 C3 3.97 3 6.94 3 10 C2.67 10 2.34 10 2 10 C1.67 8.35 1.34 6.7 1 5 C0.34 5 -0.32 5 -1 5 C-1 4.34 -1 3.68 -1 3 C-1.99 2.67 -2.98 2.34 -4 2 C-2.68 2 -1.36 2 0 2 C0 1.34 0 0.68 0 0 Z " fill="#BADCE0" transform="translate(64,96)"/>
<path d="M0 0 C-3.6208201 1.01382963 -7.27811418 1.49897691 -11 2 C-11 1.34 -11 0.68 -11 0 C-6.66370819 -2.2956839 -4.46535773 -1.86921951 0 0 Z " fill="#E5F4F6" transform="translate(83,24)"/>
<path d="M0 0 C3.96 0 7.92 0 12 0 C12 0.33 12 0.66 12 1 C9.36 1 6.72 1 4 1 C4 1.66 4 2.32 4 3 C2.68 2.67 1.36 2.34 0 2 C0 1.34 0 0.68 0 0 Z " fill="#DEF1F3" transform="translate(103,18)"/>
<path d="M0 0 C0.33 0.66 0.66 1.32 1 2 C3.31 2 5.62 2 8 2 C5.08235 3.9451 3.37462715 4.45276317 0 5 C-0.5625 3.0625 -0.5625 3.0625 -1 1 C-0.67 0.67 -0.34 0.34 0 0 Z " fill="#A9DEE2" transform="translate(80,106)"/>
<path d="M0 0 C1.45823212 -0.0270043 2.91660675 -0.04639787 4.375 -0.0625 C5.18710938 -0.07410156 5.99921875 -0.08570312 6.8359375 -0.09765625 C9 0 9 0 11 1 C11 1.66 11 2.32 11 3 C7.37 2.34 3.74 1.68 0 1 C0 0.67 0 0.34 0 0 Z " fill="#93CED2" transform="translate(152,102)"/>
<path d="M0 0 C1.98 0.99 1.98 0.99 4 2 C4 3.32 4 4.64 4 6 C3.01 6 2.02 6 1 6 C0.67 4.02 0.34 2.04 0 0 Z " fill="#E6EDEE" transform="translate(136,87)"/>
<path d="M0 0 C1.134375 0.020625 2.26875 0.04125 3.4375 0.0625 C3.4375 0.3925 3.4375 0.7225 3.4375 1.0625 C1.4575 1.0625 -0.5225 1.0625 -2.5625 1.0625 C-2.8925 2.7125 -3.2225 4.3625 -3.5625 6.0625 C-4.2225 5.7325 -4.8825 5.4025 -5.5625 5.0625 C-4.43693182 0.07784091 -4.43693182 0.07784091 0 0 Z " fill="#D4F0F1" transform="translate(71.5625,75.9375)"/>
<path d="M0 0 C1.65 0 3.3 0 5 0 C5 0.99 5 1.98 5 3 C3.02 3 1.04 3 -1 3 C-0.67 2.01 -0.34 1.02 0 0 Z " fill="#B2E5E8" transform="translate(82,35)"/>
</svg>
